<?xml version="1.0" encoding="utf-8"?>
<!-- Generator: Adobe Illustrator 22.1.0, SVG Export Plug-In . SVG Version: 6.00 Build 0)  -->
<svg version="1.1" id="Layer_1" xmlns="http://www.w3.org/2000/svg" xmlns:xlink="http://www.w3.org/1999/xlink" x="0px" y="0px"
	 viewBox="0 0 292.7 476.6" style="enable-background:new 0 0 292.7 476.6;" xml:space="preserve">
<style type="text/css">
	.st0{fill:#2F3E79;}
	.st1{fill:#21C6CA;}
</style>
<g>
	<path class="st0" d="M104.5,458.6c-5.7,0-11-2.2-15-6.2l-32.8-32.8c-6.1-6.1-9.5-14.2-9.5-22.9s3.4-16.8,9.5-22.9
		c12.6-12.6,33.2-12.6,45.9,0l2,2l2-2c12.6-12.6,33.2-12.6,45.9,0l0,0c6.1,6.1,9.5,14.3,9.5,22.9s-3.4,16.8-9.5,22.9l-32.8,32.8
		C115.5,456.3,110.2,458.6,104.5,458.6z M79.6,373.8c-5.8,0-11.7,2.2-16.1,6.7c-4.3,4.3-6.6,10-6.6,16.1s2.4,11.8,6.6,16.1
		l32.8,32.8c2.2,2.2,5.1,3.4,8.2,3.4s6-1.2,8.2-3.4l32.8-32.8c4.3-4.3,6.6-10,6.6-16.1s-2.4-11.8-6.6-16.1c-8.9-8.9-23.4-8.9-32.3,0
		l-5.4,5.4c-1.9,1.9-4.9,1.9-6.8,0l-5.4-5.4C91.3,376,85.4,373.8,79.6,373.8z"/>
	<path class="st1" d="M276.4,80c-0.9,0-1.8,0.1-2.7,0.2l-16-28.2c1.7-2.6,2.7-5.7,2.7-9c0-9-7.3-16.3-16.3-16.3
		c-4.4,0-8.5,1.8-11.4,4.7l-38.2-15.6C194.3,7,187.1,0,178.3,0c-7,0-13,4.5-15.3,10.7l-59.9,4c-2.7-5.3-8.2-9-14.6-9
		c-9,0-16.3,7.3-16.3,16.3c0,1.2,0.1,2.4,0.4,3.5L47.1,47.2c-2.2-1.1-4.7-1.8-7.3-1.8c-9,0-16.3,7.3-16.3,16.3c0,3.4,1,6.5,2.8,9.2
		L5.4,103.6l0,0l0,0.1c0,0,0,0.1-0.1,0.1c-0.2,0.3-0.3,0.5-0.4,0.8c0,0.1-0.1,0.2-0.1,0.3c-0.1,0.2-0.1,0.5-0.1,0.7
		c0,0.1,0,0.3,0,0.4c0,0.1,0,0.2,0,0.3c0,0.1,0,0.3,0,0.4c0,0.1,0,0.2,0,0.4c0.1,0.3,0.1,0.6,0.2,0.9c0,0,0,0.1,0,0.1l0,0.1l0,0
		l17.5,42.2c0.1,0.2,0.2,0.3,0.3,0.5c0,0.1,0.1,0.2,0.1,0.2c0,0,0,0,0,0c0.2,0.3,0.4,0.5,0.6,0.8l24.5,25.2c-0.7,1.9-1.2,3.9-1.2,6
		c0,9,7.3,16.3,16.3,16.3c7.3,0,13.5-4.8,15.6-11.4l12.3-1.2l6.6,46c0.3,2.1,1.9,3.7,3.9,4.1c0.3,0.1,0.6,0.1,0.8,0.1
		c1.7,0,3.4-1,4.2-2.5l32.4-60l16.7,2.5c1.4,7.5,8.1,13.2,16,13.2c8.8,0,15.9-7,16.3-15.7l19-5.8c0.1,0,0.2-0.1,0.3-0.1l44.4-16.5
		c0.1,0,0.2-0.1,0.4-0.2c0.3-0.2,0.6-0.3,0.9-0.5c0.2-0.1,0.3-0.3,0.4-0.4c0.1-0.1,0.3-0.2,0.4-0.4c0.1-0.1,0.1-0.3,0.2-0.4
		c0.1-0.1,0.2-0.2,0.2-0.3l20.6-37.4c0.6,0.1,1.2,0.1,1.8,0.1c9,0,16.3-7.3,16.3-16.3S285.4,80,276.4,80z M271.6,100.9
		c-0.3-0.4-0.6-0.8-0.9-1.2c-0.6-1-1-2.2-1-3.4c0-0.9,0.2-1.8,0.5-2.6c0.4-1,1.1-1.8,1.9-2.5c1.2-1,2.6-1.6,4.3-1.6
		c1.1,0,2.1,0.3,3.1,0.8c2.1,1.1,3.6,3.3,3.6,5.9c0,2-0.9,3.7-2.2,5c-1.2,1.1-2.7,1.7-4.4,1.7C274.5,103,272.8,102.2,271.6,100.9z
		 M265.1,84.6c-1.5,1.4-2.6,3.1-3.5,4.9l-31-5.1c-0.4-2.8-1.5-5.4-3.1-7.5l13.1-18c1.1,0.3,2.3,0.4,3.6,0.4c2.1,0,4.1-0.4,6-1.2
		L265.1,84.6z M171.6,180.5c-1.8,0-3.5-0.7-4.7-1.9c-1.2-1.2-2-2.9-2-4.7c0-1.6,0.6-3.1,1.5-4.2c0.2-0.3,0.4-0.5,0.7-0.7
		c1.2-1.1,2.7-1.7,4.4-1.7c1.3,0,2.5,0.4,3.6,1c0.3,0.2,0.6,0.4,0.9,0.7c1.3,1.2,2.2,3,2.2,4.9c0,1.4-0.5,2.8-1.3,3.9
		C175.8,179.4,173.8,180.5,171.6,180.5z M139.2,164.8l-32.1-50.5c0.3-0.3,0.5-0.6,0.7-1l57.7,14.4l0.7,30.8
		c-4.3,1.5-7.7,4.7-9.5,8.9L139.2,164.8z M95.2,21c0,0.3,0.1,0.6,0.1,0.9c0,1.1-0.3,2-0.7,2.9c-1.1,2.2-3.3,3.7-6,3.7
		c-1.3,0-2.5-0.4-3.6-1c-1.9-1.2-3.1-3.3-3.1-5.6c0-2.7,1.6-5.1,4-6.1c0,0,0,0,0.1,0c0.8-0.3,1.7-0.5,2.6-0.5c0.6,0,1.2,0.1,1.7,0.2
		C92.8,16.2,94.8,18.4,95.2,21z M178.3,9.6c0.2,0,0.4,0,0.6,0.1c0.1,0,0.1,0,0.2,0c0,0,0.1,0,0.1,0c0.1,0,0.2,0,0.3,0
		c0.2,0,0.4,0.1,0.5,0.1c0.1,0,0.2,0.1,0.3,0.1c0.3,0.1,0.6,0.2,0.8,0.3c2.2,1.1,3.7,3.3,3.7,6c0,2-0.9,3.8-2.3,5
		c-1,0.9-2.2,1.4-3.6,1.6c-0.2,0-0.5,0.1-0.7,0.1c-2.4,0-4.5-1.3-5.7-3.3c-0.6-0.9-0.9-2-0.9-3.1c0-0.1,0-0.2,0-0.2
		c0-3.2,2.3-5.9,5.4-6.5C177.4,9.7,177.8,9.6,178.3,9.6z M165.5,26.3l-18.1,28.8l-43.3-28.3c0.3-0.9,0.5-1.8,0.6-2.7l57.8-3.9
		C163.1,22.6,164.1,24.6,165.5,26.3z M229.8,50.6c0.7,1.3,1.5,2.4,2.5,3.5l-12.5,17.2c-1.6-0.6-3.4-0.9-5.2-0.9
		c-5.2,0-9.8,2.5-12.8,6.3l-35.4-13.4L229.8,50.6z M244.2,36.4c0.3,0,0.6,0.1,0.9,0.1c1.1,0.2,2.2,0.6,3.1,1.3c0,0,0.1,0.1,0.1,0.1
		c1.6,1.2,2.6,3.1,2.6,5.2c0,0.9-0.2,1.7-0.5,2.4c-0.4,1-1.1,1.9-1.9,2.7c-0.9,0.7-2,1.3-3.1,1.5c-0.4,0.1-0.7,0.1-1.1,0.1
		c-3.4,0-6.2-2.6-6.6-5.9c0-0.2-0.1-0.5-0.1-0.7c0-1.5,0.5-2.9,1.4-4.1C240.2,37.4,242,36.4,244.2,36.4z M88,103.7
		c0-1.5,0.6-3,1.4-4.1c1-1.3,2.6-2.3,4.3-2.5c0.3,0,0.6-0.1,0.9-0.1c3,0,5.4,2,6.3,4.6c0.2,0.6,0.4,1.3,0.4,2c0,0.3,0,0.6-0.1,0.8
		c0,0.2,0,0.3,0,0.5c0,0.2-0.1,0.4-0.2,0.6c-0.7,2.2-2.4,3.9-4.6,4.5c-0.6,0.2-1.2,0.3-1.8,0.3c-0.6,0-1.1-0.1-1.7-0.2
		c-0.8-0.2-1.5-0.5-2.2-1c-1.5-1.1-2.6-2.8-2.8-4.7C88,104.2,88,104,88,103.7z M98.6,34.8l42.1,27.5l-36.2,28.5
		c-1.9-1.4-4.2-2.5-6.6-3l-5.4-50C94.7,37.2,96.8,36.2,98.6,34.8z M110.1,98.5l36.5-28.7l16.2,47.3l-51.8-13c0-0.1,0-0.3,0-0.4
		C111,101.9,110.6,100.2,110.1,98.5z M156.8,70l41.5,15.7c0,0.3-0.1,0.7-0.1,1c0,2.2,0.5,4.4,1.3,6.3l-27.1,22.7L156.8,70z
		 M221,88.3c-0.4,1.6-1.4,3-2.7,3.9c-1.1,0.7-2.4,1.2-3.8,1.2c-0.1,0-0.3,0-0.4,0c-0.5,0-1-0.1-1.5-0.3c-2.8-0.8-4.8-3.3-4.8-6.4
		c0-2.7,1.7-5.1,4.1-6.1c0.5-0.2,0.9-0.3,1.4-0.4c0.4-0.1,0.8-0.1,1.2-0.1c3.7,0,6.7,3,6.7,6.7C221.2,87.2,221.1,87.8,221,88.3z
		 M100.3,121.6l28.5,44.8l-28.9,8.7L100.3,121.6z M205.7,100.4c2.5,1.6,5.6,2.6,8.8,2.6c1.3,0,2.5-0.2,3.6-0.4l21.4,37l-59.5-17.6
		L205.7,100.4z M228,41.2L158.9,55l14.5-23.1c1.5,0.5,3.2,0.7,4.9,0.7c5.7,0,10.8-3,13.7-7.5l36.2,14.8
		C228.1,40.3,228.1,40.7,228,41.2z M77.6,33.9c1.5,1.4,3.2,2.5,5.1,3.2l5.6,51.7c-1.1,0.5-2.2,1.1-3.1,1.8L54.9,67.5
		c0.7-1.8,1.1-3.8,1.1-5.8c0-2.8-0.7-5.5-2-7.8L77.6,33.9z M37.2,55.5c0.8-0.3,1.6-0.5,2.5-0.5c3.3,0,6,2.3,6.5,5.4
		c0,0.2,0,0.4,0.1,0.5c0,0.2,0.1,0.5,0.1,0.7c0,3.6-2.8,6.4-6.3,6.6c-0.1,0-0.2,0-0.4,0c-0.2,0-0.3,0-0.4,0
		c-3.5-0.2-6.2-3.1-6.2-6.6c0-0.7,0.1-1.4,0.4-2.1C34,57.7,35.4,56.2,37.2,55.5z M33.8,76.8c1.8,0.7,3.8,1.1,5.9,1.1
		c3.4,0,6.6-1.1,9.2-2.9l30.4,23.2c-0.3,0.8-0.5,1.6-0.7,2.5l-60.5,0.7L33.8,76.8z M78.7,110.3l-49.5,31.2L16.6,111L78.7,110.3z
		 M34.5,149.5l51.1-32.2c1.5,1,3.2,1.8,5.1,2.2l-0.5,57.7l-11.6,1.1c-2.1-6.6-8.3-11.5-15.6-11.5c-3.3,0-6.4,1-9,2.7L34.5,149.5z
		 M69.7,183.1c0,2.7-1.6,5-3.9,6c-0.8,0.4-1.8,0.6-2.8,0.6c-1,0-1.9-0.2-2.7-0.6c-0.7-0.3-1.4-0.8-2-1.3c0,0-0.1-0.1-0.1-0.1
		c-1.2-1.2-1.9-2.8-1.9-4.6c0-3,2-5.5,4.7-6.3c0.6-0.2,1.3-0.3,2-0.3c2.2,0,4.2,1.1,5.4,2.8C69.3,180.4,69.7,181.7,69.7,183.1z
		 M105,217.1l-4.6-32l26.2-7.8L105,217.1z M203.9,159.5l-18.6,5.6c-2.2-3.4-5.5-5.9-9.5-7l-0.7-27.7l59.5,17.6L203.9,159.5z
		 M249.7,137.8l-23.2-40.1c1-1.1,1.9-2.4,2.6-3.8l31.3,5.1c0.7,3.8,2.6,7.2,5.4,9.6L249.7,137.8z"/>
	<path class="st0" d="M204.6,428l-64.7-112v-31.4c8-2.3,13.8-9.7,13.8-18.5c0-10.6-8.6-19.2-19.2-19.2H74.4
		c-10.6,0-19.2,8.6-19.2,19.2c0,8.7,5.9,16.1,13.9,18.5V316L4.4,428c-5.9,10.1-5.9,22.2,0,32.4c5.9,10.1,16.3,16.2,28,16.2h144.1
		c11.7,0,22.2-6.1,28-16.2C210.5,450.2,210.5,438.1,204.6,428z M74.4,256.5h60.1c5.3,0,9.6,4.3,9.6,9.6c0,3.3-1.7,6.2-4.2,8
		c0,0-0.1,0-0.1,0c-0.4,0.3-0.9,0.5-1.4,0.8c-0.2,0.1-0.3,0.1-0.5,0.2c-0.4,0.1-0.8,0.3-1.2,0.4c-0.2,0-0.3,0.1-0.5,0.1
		c-0.6,0.1-1.1,0.2-1.7,0.2h-4.2H78.7h-4.2c-0.6,0-1.2-0.1-1.7-0.2c-0.2,0-0.3-0.1-0.5-0.1c-0.4-0.1-0.8-0.2-1.2-0.4
		c-0.2-0.1-0.3-0.1-0.5-0.2c-0.5-0.2-1-0.5-1.4-0.8c0,0-0.1,0-0.1,0c-2.6-1.7-4.2-4.7-4.2-8C64.8,260.8,69.1,256.5,74.4,256.5z
		 M196.3,455.6c-4.1,7.1-11.5,11.4-19.7,11.4H32.4c-8.2,0-15.6-4.3-19.7-11.4c-4.1-7.1-4.1-15.6,0-22.8L78,319.7
		c0.4-0.7,0.6-1.6,0.6-2.4v-31.9h51.6v31.9c0,0.8,0.2,1.7,0.6,2.4l65.3,113.1C200.4,439.9,200.4,448.4,196.3,455.6z"/>
</g>
</svg>
