<?xml version="1.0" encoding="utf-8"?>
<!-- Generator: Adobe Illustrator 16.0.0, SVG Export Plug-In . SVG Version: 6.00 Build 0)  -->
<!DOCTYPE svg PUBLIC "-//W3C//DTD SVG 1.1//EN" "http://www.w3.org/Graphics/SVG/1.1/DTD/svg11.dtd">
<svg version="1.1" id="Layer_1" xmlns="http://www.w3.org/2000/svg" xmlns:xlink="http://www.w3.org/1999/xlink" x="0px" y="0px"
	 width="208.302px" height="50.935px" viewBox="0 0 208.302 50.935" enable-background="new 0 0 208.302 50.935"
	 xml:space="preserve">
<g>
	<g>
		<path fill="#3D3C3F" d="M95.159,22.96h6.824c2.054,0,9.245,0,9.245,6.825c0,4.951-3.777,6.311-6.64,6.676l7.558,12.474h-2.753
			l-7.3-12.327H97.58v12.327h-2.421V22.96z M97.58,34.406h5.136c5.099,0,6.089-2.824,6.089-4.621c0-1.799-0.99-4.623-6.089-4.623
			H97.58V34.406z"/>
		<path fill="#3D3C3F" d="M124.873,22.96h2.494l10.933,25.974h-2.715l-2.824-6.897h-13.758l-2.936,6.897h-2.531L124.873,22.96z
			 M126.008,25.602l-6.053,14.234h11.924L126.008,25.602z"/>
		<path fill="#3D3C3F" d="M140.872,22.96h8.033c13.502,0,14.051,11.08,14.051,12.987c0,1.908-0.549,12.987-14.051,12.987h-8.033
			V22.96z M143.292,46.732h4.989c6.897,0,12.252-3.338,12.252-10.785s-5.354-10.785-12.252-10.785h-4.989V46.732z"/>
		<path fill="#3D3C3F" d="M173.149,22.96h2.496l10.932,25.974h-2.715l-2.824-6.897h-13.756l-2.936,6.897h-2.531L173.149,22.96z
			 M174.288,25.602l-6.053,14.234h11.922L174.288,25.602z"/>
		<path fill="#3D3C3F" d="M189.317,22.96h6.822c2.056,0,9.246,0,9.246,6.825c0,4.951-3.779,6.311-6.64,6.676l7.556,12.474h-2.75
			l-7.301-12.327h-4.512v12.327h-2.422V22.96z M191.739,34.406h5.135c5.101,0,6.09-2.824,6.09-4.621c0-1.799-0.989-4.623-6.09-4.623
			h-5.135V34.406z"/>
	</g>
	<g>
		<g>
			<path fill="#F18B1B" d="M0,22.96h9.685c4.549,0,9.501,0.955,9.501,6.604c0,2.898-1.796,4.879-4.475,5.723v0.073
				c3.412,0.44,5.686,2.972,5.686,6.347c0,5.429-5.136,7.228-9.758,7.228H0V22.96z M5.723,33.344h4.145
				c1.761,0,3.596-0.734,3.596-2.825c0-2.165-2.055-2.715-3.852-2.715H5.723V33.344z M5.723,44.092h5.136
				c1.798,0,3.815-0.771,3.815-3.045c0-2.458-2.751-2.861-4.623-2.861H5.723V44.092z"/>
			<path fill="#F18B1B" d="M45.028,38.919c0,6.127-3.742,10.675-10.933,10.675c-7.227,0-10.969-4.548-10.969-10.675V22.96h5.723
				v15.739c0,3.191,2.202,5.613,5.246,5.613c3.008,0,5.209-2.422,5.209-5.613V22.96h5.723V38.919z"/>
			<path fill="#F18B1B" d="M47.757,43.65l13.17-15.627H48.234V22.96h19.627v5.063L54.948,43.65h13.353v5.284H47.757V43.65z"/>
			<path fill="#F18B1B" d="M71.03,43.65L84.2,28.023H71.507V22.96h19.627v5.063L78.221,43.65h13.353v5.284H71.03V43.65z"/>
		</g>
		<g>
			<polygon fill="#F18B1B" points="155.583,0 169.327,12.823 162.954,12.88 170.362,22.849 156.631,10.044 163.067,10.044 			"/>
			<polygon fill="#F18B1B" points="192.931,0 179.185,12.823 185.559,12.88 178.151,22.849 191.881,10.044 185.446,10.044 			"/>
		</g>
	</g>
</g>
</svg>
