<?xml version="1.0" encoding="utf-8"?>
<!-- Generator: Adobe Illustrator 22.1.0, SVG Export Plug-In . SVG Version: 6.00 Build 0)  -->
<svg version="1.1" id="Layer_1" xmlns="http://www.w3.org/2000/svg" xmlns:xlink="http://www.w3.org/1999/xlink" x="0px" y="0px"
	 viewBox="0 0 846.6 272.4" style="enable-background:new 0 0 846.6 272.4;" xml:space="preserve">
<style type="text/css">
	.st0{fill:#FFFFFF;}
	.st1{fill:#2F3E79;}
</style>
<g>
	<path class="st0" d="M58.3,255.7c-3.2,0-6.1-1.2-8.4-3.5l-18.3-18.3c-3.4-3.4-5.3-7.9-5.3-12.8s1.9-9.4,5.3-12.8
		c7.1-7,18.5-7,25.6,0l1.1,1.1l1.1-1.1c7-7,18.5-7,25.6,0l0,0c3.4,3.4,5.3,7.9,5.3,12.8s-1.9,9.4-5.3,12.8l-18.3,18.3
		C64.4,254.4,61.4,255.7,58.3,255.7z M44.4,208.4c-3.3,0-6.5,1.2-9,3.7c-2.4,2.4-3.7,5.6-3.7,9c0,3.4,1.3,6.6,3.7,9l18.3,18.3
		c1.2,1.2,2.8,1.9,4.6,1.9c1.7,0,3.4-0.7,4.6-1.9l18.3-18.3c2.4-2.4,3.7-5.6,3.7-9c0-3.4-1.3-6.6-3.7-9c-5-5-13-5-18,0l-3,3
		c-1,1-2.7,1-3.8,0l-3-3C50.9,209.6,47.6,208.4,44.4,208.4z"/>
	<path class="st1" d="M154.1,44.6c-0.5,0-1,0.1-1.5,0.1L143.7,29c1-1.4,1.5-3.2,1.5-5c0-5-4.1-9.1-9.1-9.1c-2.5,0-4.7,1-6.4,2.6
		l-21.3-8.7c-0.2-4.9-4.2-8.8-9.1-8.8c-3.9,0-7.2,2.5-8.5,6L57.5,8.2c-1.5-3-4.6-5-8.1-5c-5,0-9.1,4.1-9.1,9.1
		c0,0.7,0.1,1.3,0.2,1.9L26.2,26.3c-1.2-0.6-2.6-1-4.1-1c-5,0-9.1,4.1-9.1,9.1c0,1.9,0.6,3.7,1.6,5.1L3,57.8l0,0l0,0c0,0,0,0,0,0.1
		c-0.1,0.1-0.2,0.3-0.2,0.5c0,0.1,0,0.1-0.1,0.2c0,0.1-0.1,0.3-0.1,0.4c0,0.1,0,0.1,0,0.2c0,0.1,0,0.1,0,0.2c0,0.1,0,0.2,0,0.2
		c0,0.1,0,0.1,0,0.2c0,0.2,0.1,0.3,0.1,0.5c0,0,0,0.1,0,0.1l0,0l0,0l9.8,23.5c0,0.1,0.1,0.2,0.1,0.3c0,0,0,0.1,0.1,0.1c0,0,0,0,0,0
		c0.1,0.2,0.2,0.3,0.3,0.4l13.6,14c-0.4,1-0.6,2.2-0.6,3.4c0,5,4.1,9.1,9.1,9.1c4.1,0,7.5-2.7,8.7-6.4l6.9-0.6l3.7,25.7
		c0.2,1.1,1,2.1,2.2,2.3c0.2,0,0.3,0,0.5,0c1,0,1.9-0.5,2.4-1.4l18.1-33.4l9.3,1.4c0.8,4.2,4.5,7.4,8.9,7.4c4.9,0,8.9-3.9,9.1-8.8
		l10.6-3.2c0.1,0,0.1,0,0.2-0.1l24.7-9.2c0.1,0,0.1-0.1,0.2-0.1c0.2-0.1,0.4-0.2,0.5-0.3c0.1-0.1,0.2-0.1,0.2-0.2
		c0.1-0.1,0.2-0.1,0.2-0.2c0.1-0.1,0.1-0.2,0.1-0.2c0-0.1,0.1-0.1,0.1-0.1l11.5-20.8c0.3,0,0.7,0.1,1,0.1c5,0,9.1-4.1,9.1-9.1
		S159.1,44.6,154.1,44.6z M151.4,56.2c-0.2-0.2-0.3-0.4-0.5-0.7c-0.3-0.6-0.5-1.2-0.5-1.9c0-0.5,0.1-1,0.3-1.5c0.2-0.5,0.6-1,1-1.4
		c0.6-0.5,1.5-0.9,2.4-0.9c0.6,0,1.2,0.2,1.7,0.4c1.2,0.6,2,1.9,2,3.3c0,1.1-0.5,2.1-1.3,2.8c-0.7,0.6-1.5,1-2.5,1
		C153,57.4,152.1,57,151.4,56.2z M147.8,47.2c-0.8,0.8-1.5,1.7-2,2.7l-17.3-2.8c-0.2-1.6-0.8-3-1.7-4.2l7.3-10.1
		c0.6,0.1,1.3,0.2,2,0.2c1.2,0,2.3-0.2,3.3-0.6L147.8,47.2z M95.7,100.6c-1,0-1.9-0.4-2.6-1.1C92.4,98.9,92,98,92,96.9
		c0-0.9,0.3-1.7,0.9-2.4c0.1-0.1,0.2-0.3,0.4-0.4c0.7-0.6,1.5-1,2.5-1c0.7,0,1.4,0.2,2,0.6c0.2,0.1,0.4,0.3,0.5,0.4
		c0.7,0.7,1.2,1.7,1.2,2.7c0,0.8-0.3,1.5-0.7,2.2C98,100,96.9,100.6,95.7,100.6z M77.6,91.9L59.7,63.7c0.1-0.2,0.3-0.4,0.4-0.5
		l32.1,8l0.4,17.1c-2.4,0.8-4.3,2.6-5.3,4.9L77.6,91.9z M53.1,11.7c0,0.2,0.1,0.3,0.1,0.5c0,0.6-0.2,1.1-0.4,1.6
		c-0.6,1.2-1.9,2.1-3.3,2.1c-0.7,0-1.4-0.2-2-0.6c-1-0.7-1.7-1.8-1.7-3.1c0-1.5,0.9-2.8,2.2-3.4c0,0,0,0,0,0
		c0.4-0.2,0.9-0.3,1.5-0.3c0.3,0,0.6,0.1,1,0.1C51.8,9,52.8,10.2,53.1,11.7z M99.4,5.4c0.1,0,0.2,0,0.3,0c0,0,0.1,0,0.1,0
		c0,0,0.1,0,0.1,0c0.1,0,0.1,0,0.2,0c0.1,0,0.2,0.1,0.3,0.1c0.1,0,0.1,0,0.2,0.1c0.2,0.1,0.3,0.1,0.5,0.2c1.2,0.6,2.1,1.9,2.1,3.3
		c0,1.1-0.5,2.1-1.3,2.8c-0.6,0.5-1.3,0.8-2,0.9c-0.1,0-0.3,0-0.4,0c-1.4,0-2.5-0.7-3.2-1.8c-0.3-0.5-0.5-1.1-0.5-1.8
		c0,0,0-0.1,0-0.1c0-1.8,1.3-3.3,3-3.6C98.9,5.4,99.2,5.4,99.4,5.4z M92.3,14.7L82.2,30.8L58,15c0.2-0.5,0.3-1,0.3-1.5l32.2-2.1
		C90.9,12.6,91.5,13.7,92.3,14.7z M128.1,28.2c0.4,0.7,0.8,1.4,1.4,1.9l-7,9.6c-0.9-0.3-1.9-0.5-2.9-0.5c-2.9,0-5.5,1.4-7.2,3.5
		l-19.8-7.5L128.1,28.2z M136.1,20.3c0.2,0,0.3,0,0.5,0.1c0.6,0.1,1.2,0.3,1.7,0.7c0,0,0,0,0.1,0.1c0.9,0.7,1.4,1.7,1.4,2.9
		c0,0.5-0.1,0.9-0.3,1.4c-0.2,0.6-0.6,1.1-1.1,1.5c-0.5,0.4-1.1,0.7-1.8,0.8c-0.2,0-0.4,0.1-0.6,0.1c-1.9,0-3.5-1.5-3.7-3.3
		c0-0.1,0-0.3,0-0.4c0-0.9,0.3-1.6,0.8-2.3C133.9,20.8,134.9,20.3,136.1,20.3z M49.1,57.8c0-0.9,0.3-1.6,0.8-2.3
		c0.6-0.7,1.4-1.3,2.4-1.4c0.2,0,0.3-0.1,0.5-0.1c1.7,0,3,1.1,3.5,2.6c0.1,0.4,0.2,0.7,0.2,1.1c0,0.2,0,0.3,0,0.5c0,0.1,0,0.2,0,0.3
		c0,0.1-0.1,0.2-0.1,0.3c-0.4,1.2-1.3,2.2-2.5,2.5c-0.3,0.1-0.7,0.2-1,0.2c-0.3,0-0.6-0.1-0.9-0.1c-0.4-0.1-0.8-0.3-1.2-0.6
		c-0.9-0.6-1.4-1.6-1.5-2.6C49.1,58.1,49.1,58,49.1,57.8z M55,19.4l23.5,15.3L58.2,50.6c-1.1-0.8-2.3-1.4-3.7-1.7l-3-27.9
		C52.8,20.7,54,20.2,55,19.4z M61.4,54.9l20.3-16l9,26.4l-28.9-7.2c0-0.1,0-0.2,0-0.2C61.9,56.8,61.7,55.8,61.4,54.9z M87.4,39
		l23.2,8.8c0,0.2,0,0.4,0,0.6c0,1.3,0.3,2.4,0.7,3.5L96.2,64.5L87.4,39z M123.2,49.2c-0.2,0.9-0.8,1.7-1.5,2.2
		c-0.6,0.4-1.3,0.7-2.1,0.7c-0.1,0-0.2,0-0.2,0c-0.3,0-0.5-0.1-0.8-0.1c-1.5-0.5-2.7-1.9-2.7-3.6c0-1.5,0.9-2.9,2.3-3.4
		c0.3-0.1,0.5-0.2,0.8-0.2c0.2,0,0.4-0.1,0.7-0.1c2.1,0,3.7,1.7,3.7,3.7C123.3,48.6,123.3,48.9,123.2,49.2z M55.9,67.8l15.9,25
		l-16.1,4.8L55.9,67.8z M114.7,56c1.4,0.9,3.1,1.5,4.9,1.5c0.7,0,1.4-0.1,2-0.2l11.9,20.6L100.4,68L114.7,56z M127.1,22.9l-38.5,7.7
		l8.1-12.9c0.9,0.3,1.8,0.4,2.7,0.4c3.2,0,6-1.7,7.6-4.2l20.2,8.3C127.2,22.5,127.2,22.7,127.1,22.9z M43.2,18.9
		c0.8,0.8,1.8,1.4,2.9,1.8l3.1,28.8c-0.6,0.3-1.2,0.6-1.7,1L30.6,37.6c0.4-1,0.6-2.1,0.6-3.3c0-1.6-0.4-3.1-1.1-4.4L43.2,18.9z
		 M20.7,30.9c0.4-0.2,0.9-0.3,1.4-0.3c1.8,0,3.3,1.3,3.6,3c0,0.1,0,0.2,0,0.3c0,0.1,0,0.3,0,0.4c0,2-1.6,3.6-3.5,3.7
		c-0.1,0-0.1,0-0.2,0c-0.1,0-0.2,0-0.2,0c-1.9-0.1-3.5-1.7-3.5-3.7c0-0.4,0.1-0.8,0.2-1.2C19,32.2,19.7,31.4,20.7,30.9z M18.9,42.8
		c1,0.4,2.1,0.6,3.3,0.6c1.9,0,3.7-0.6,5.2-1.6l16.9,12.9c-0.2,0.4-0.3,0.9-0.4,1.4l-33.7,0.4L18.9,42.8z M43.9,61.5L16.3,78.9
		l-7-17L43.9,61.5z M19.2,83.4l28.5-17.9c0.9,0.6,1.8,1,2.8,1.2l-0.3,32.2l-6.5,0.6c-1.1-3.7-4.6-6.4-8.7-6.4c-1.9,0-3.6,0.6-5,1.5
		L19.2,83.4z M38.9,102.1c0,1.5-0.9,2.8-2.2,3.4c-0.5,0.2-1,0.3-1.5,0.3c-0.5,0-1-0.1-1.5-0.3c-0.4-0.2-0.8-0.4-1.1-0.7
		c0,0,0,0-0.1-0.1c-0.6-0.7-1.1-1.6-1.1-2.6c0-1.7,1.1-3,2.6-3.5c0.4-0.1,0.7-0.2,1.1-0.2c1.2,0,2.3,0.6,3,1.6
		C38.6,100.6,38.9,101.3,38.9,102.1z M58.5,121L56,103.2l14.6-4.4L58.5,121z M113.7,88.9l-10.4,3.1c-1.2-1.9-3.1-3.3-5.3-3.9
		l-0.4-15.4l33.2,9.8L113.7,88.9z M139.2,76.8l-12.9-22.3c0.6-0.6,1.1-1.3,1.5-2.1l17.4,2.8c0.4,2.1,1.5,4,3,5.3L139.2,76.8z"/>
	<g>
		<path class="st0" d="M244.1,50.1v-0.2c0-23.3,17.4-42.3,42.2-42.3c15.1,0,24.2,5.3,32,12.7l-9.2,10.6
			c-6.5-6.1-13.6-10.2-22.9-10.2c-15.7,0-27,12.9-27,28.9v0.2c0,16,11.3,29.1,27,29.1c10,0,16.5-4.1,23.5-10.6l9.2,9.3
			c-8.5,8.9-17.9,14.5-33.2,14.5C261.9,92.2,244.1,73.6,244.1,50.1z"/>
		<path class="st0" d="M334,9h36.5c10.3,0,18.3,3,23.6,8.2c4.3,4.4,6.8,10.5,6.8,17.6V35c0,13.4-8.1,21.5-19.5,24.8l22.1,31h-16.9
			l-20.1-28.5h-18v28.5H334V9z M369.4,49.5c10.3,0,16.8-5.4,16.8-13.7v-0.2c0-8.8-6.3-13.6-16.9-13.6h-20.9v27.5H369.4z"/>
		<path class="st0" d="M418.5,9h60.6v12.9h-46.3v21.3h41v12.9h-41v22h46.9v12.9h-61.2V9z"/>
		<path class="st0" d="M496.7,9h30.5c25.7,0,43.5,17.6,43.5,40.7v0.2c0,23-17.8,40.9-43.5,40.9h-30.5V9z M527.2,77.7
			c17.2,0,28.4-11.6,28.4-27.6v-0.2c0-16-11.2-27.8-28.4-27.8h-16.1v55.6H527.2z"/>
		<path class="st0" d="M588.9,9h14.4v81.8h-14.4V9z"/>
		<path class="st0" d="M625.2,9h36.7c9.3,0,16.7,2.6,21.4,7.2c3.6,3.6,5.5,8.1,5.5,13.6V30c0,9.8-5.6,15.1-11.7,18.2
			c9.6,3.3,16.2,8.8,16.2,19.9v0.2c0,14.6-12,22.4-30.3,22.4h-37.9V9z M658.9,43.4c9.2,0,15.4-3.6,15.4-11.1v-0.2
			c0-6.4-5.1-10.4-14.4-10.4h-20.7v21.7H658.9z M663.1,78c9.8,0,15.8-3.9,15.8-11.2v-0.2c0-6.9-5.5-11-16.8-11h-22.8V78H663.1z"/>
		<path class="st0" d="M709.5,9h14.4v68.7h43v13.1h-57.4V9z"/>
		<path class="st0" d="M781.8,9h60.6v12.9h-46.3v21.3h41v12.9h-41v22h46.9v12.9h-61.2V9z"/>
	</g>
	<g>
		<path class="st0" d="M161.4,121.6h14.4v81.8h-14.4V121.6z"/>
		<path class="st0" d="M197.6,121.6h13.3l43.8,56.6v-56.6h14.1v81.8h-12l-45.1-58.2v58.2h-14.1V121.6z"/>
		<path class="st0" d="M289.9,121.6h60.9v13.1h-46.5V157h41.2v13.1h-41.2v33.3h-14.4V121.6z"/>
		<path class="st0" d="M366.6,121.6H381v68.7h43v13.1h-57.4V121.6z"/>
		<path class="st0" d="M435.3,168.7v-47.1h14.4v46.5c0,15.2,7.8,23.4,20.7,23.4c12.7,0,20.6-7.7,20.6-22.8v-47.1h14.4V168
			c0,24.4-13.8,36.7-35.2,36.7C448.8,204.7,435.3,192.4,435.3,168.7z"/>
		<path class="st0" d="M525,121.6h60.6v12.9h-46.3v21.3h41v12.9h-41v22h46.9v12.9H525V121.6z"/>
		<path class="st0" d="M603.3,121.6h13.3l43.8,56.6v-56.6h14.1v81.8h-12l-45.1-58.2v58.2h-14.1V121.6z"/>
		<path class="st0" d="M692,162.8v-0.2c0-23.3,17.4-42.3,42.2-42.3c15.1,0,24.2,5.3,32,12.7l-9.2,10.6c-6.5-6.1-13.6-10.2-22.9-10.2
			c-15.7,0-27,12.9-27,28.9v0.2c0,16,11.3,29.1,27,29.1c10,0,16.5-4.1,23.5-10.6l9.2,9.3c-8.5,8.9-17.9,14.5-33.2,14.5
			C709.8,204.8,692,186.2,692,162.8z"/>
		<path class="st0" d="M781.8,121.6h60.6v12.9h-46.3v21.3h41v12.9h-41v22h46.9v12.9h-61.2V121.6z"/>
	</g>
	<g>
		<path class="st1" d="M175.6,222h6.6l17.9,40.9h-7.5l-4.1-9.8h-19.2l-4.2,9.8h-7.3L175.6,222z M185.8,246.7l-7-16.3l-7,16.3H185.8z
			"/>
		<path class="st1" d="M224.4,222.2h18.2c4.6,0,8.3,1.3,10.6,3.6c1.8,1.8,2.7,4,2.7,6.7v0.1c0,4.9-2.8,7.5-5.8,9.1
			c4.8,1.6,8.1,4.4,8.1,9.9v0.1c0,7.3-6,11.1-15,11.1h-18.8V222.2z M241.2,239.4c4.6,0,7.7-1.8,7.7-5.5v-0.1c0-3.2-2.6-5.2-7.1-5.2
			h-10.3v10.8H241.2z M243.3,256.6c4.9,0,7.8-1.9,7.8-5.6v-0.1c0-3.4-2.7-5.5-8.4-5.5h-11.3v11.1H243.3z"/>
		<path class="st1" d="M265.2,251.7v-19.5h7v17.4c0,4.8,2.4,7.5,6.6,7.5c4.1,0,6.9-2.8,6.9-7.6v-17.3h7v30.7h-7v-4.8
			c-2,2.9-4.8,5.4-9.6,5.4C269.2,263.5,265.2,258.9,265.2,251.7z"/>
		<path class="st1" d="M300.1,258.1l17.7-20.1h-17.1v-5.7h26v4.8l-17.7,20.1h17.7v5.7h-26.6V258.1z"/>
		<path class="st1" d="M332.7,258.1l17.7-20.1h-17.1v-5.7h26v4.8l-17.7,20.1h17.7v5.7h-26.6V258.1z"/>
		<path class="st1" d="M384.8,222.2h18.1c5.1,0,9.1,1.5,11.7,4.1c2.1,2.2,3.4,5.2,3.4,8.8v0.1c0,6.7-4,10.7-9.7,12.3l11,15.4h-8.4
			l-10-14.2h-8.9v14.2h-7.1V222.2z M402.4,242.4c5.1,0,8.4-2.7,8.4-6.8v-0.1c0-4.4-3.1-6.7-8.4-6.7h-10.4v13.6H402.4z"/>
		<path class="st1" d="M444.7,262.9v-3.8c-2.1,2.5-5.3,4.4-9.9,4.4c-5.8,0-10.9-3.3-10.9-9.5v-0.1c0-6.8,5.3-10,12.4-10
			c3.7,0,6.1,0.5,8.5,1.3v-0.6c0-4.2-2.7-6.6-7.5-6.6c-3.4,0-6,0.8-8.8,1.9l-1.9-5.6c3.4-1.5,6.7-2.6,11.7-2.6
			c9.1,0,13.5,4.8,13.5,12.9v18.2H444.7z M444.9,250.1c-1.8-0.7-4.3-1.2-7-1.2c-4.4,0-7,1.8-7,4.8v0.1c0,2.9,2.6,4.5,5.9,4.5
			c4.6,0,8.1-2.6,8.1-6.4V250.1z"/>
		<path class="st1" d="M458.5,247.6v-0.1c0-10.2,6.9-15.9,14.2-15.9c5.1,0,8.2,2.6,10.5,5.4v-16.5h7v42.4h-7v-5.1
			c-2.3,3.2-5.5,5.7-10.5,5.7C465.5,263.5,458.5,257.8,458.5,247.6z M483.3,247.6v-0.1c0-5.9-4.2-9.8-8.9-9.8
			c-4.8,0-8.8,3.7-8.8,9.8v0.1c0,5.9,4.1,9.8,8.8,9.8C479.1,257.4,483.3,253.5,483.3,247.6z"/>
		<path class="st1" d="M517.7,262.9v-3.8c-2.1,2.5-5.3,4.4-9.9,4.4c-5.8,0-10.9-3.3-10.9-9.5v-0.1c0-6.8,5.3-10,12.4-10
			c3.7,0,6.1,0.5,8.5,1.3v-0.6c0-4.2-2.7-6.6-7.5-6.6c-3.4,0-6,0.8-8.8,1.9l-1.9-5.6c3.4-1.5,6.7-2.6,11.7-2.6
			c9.1,0,13.5,4.8,13.5,12.9v18.2H517.7z M517.9,250.1c-1.8-0.7-4.3-1.2-7-1.2c-4.4,0-7,1.8-7,4.8v0.1c0,2.9,2.6,4.5,5.9,4.5
			c4.6,0,8.1-2.6,8.1-6.4V250.1z"/>
		<path class="st1" d="M533,232.2h7v6.9c1.9-4.6,5.5-7.7,10.9-7.5v7.4h-0.4c-6.2,0-10.5,4-10.5,12.1v11.7h-7V232.2z"/>
		<path class="st1" d="M573.4,242.7v-0.1c0-11.6,8.7-21,21-21c7.5,0,12,2.6,15.9,6.3l-4.6,5.3c-3.3-3-6.7-5.1-11.4-5.1
			c-7.8,0-13.4,6.4-13.4,14.3v0.1c0,8,5.6,14.5,13.4,14.5c5,0,8.2-2,11.7-5.3l4.6,4.6c-4.2,4.4-8.9,7.2-16.5,7.2
			C582.2,263.6,573.4,254.4,573.4,242.7z"/>
		<path class="st1" d="M615,247.7v-0.1c0-8.8,7-16,16.4-16s16.3,7.1,16.3,15.9v0.1c0,8.7-7,16-16.4,16
			C621.9,263.6,615,256.4,615,247.7z M640.6,247.7v-0.1c0-5.4-3.9-9.9-9.4-9.9c-5.6,0-9.2,4.4-9.2,9.8v0.1c0,5.3,3.9,9.9,9.3,9.9
			C637,257.5,640.6,253,640.6,247.7z"/>
		<path class="st1" d="M654.8,232.2h7v4.6c2-2.7,4.6-5.3,9.3-5.3c4.4,0,7.5,2.1,9.1,5.4c2.5-3.3,5.7-5.4,10.4-5.4
			c6.7,0,10.7,4.2,10.7,11.7v19.6h-7v-17.4c0-4.9-2.3-7.5-6.2-7.5c-3.8,0-6.6,2.7-6.6,7.6v17.3h-7v-17.5c0-4.8-2.3-7.4-6.2-7.4
			c-3.9,0-6.6,2.9-6.6,7.7v17.2h-7V232.2z"/>
		<path class="st1" d="M710,232.2h7v5.1c2.3-3.2,5.5-5.7,10.4-5.7c7.3,0,14.3,5.7,14.3,15.9v0.1c0,10.2-7,15.9-14.3,15.9
			c-5.1,0-8.2-2.6-10.4-5.4v14h-7V232.2z M734.5,247.6v-0.1c0-5.9-4-9.8-8.8-9.8s-8.9,3.9-8.9,9.8v0.1c0,5.9,4.2,9.8,8.9,9.8
			C730.6,257.4,734.5,253.7,734.5,247.6z"/>
		<path class="st1" d="M767.6,262.9v-3.8c-2.1,2.5-5.3,4.4-9.9,4.4c-5.8,0-10.9-3.3-10.9-9.5v-0.1c0-6.8,5.3-10,12.4-10
			c3.7,0,6.1,0.5,8.5,1.3v-0.6c0-4.2-2.7-6.6-7.5-6.6c-3.4,0-6,0.8-8.8,1.9l-1.9-5.6c3.4-1.5,6.7-2.6,11.7-2.6
			c9.1,0,13.5,4.8,13.5,12.9v18.2H767.6z M767.8,250.1c-1.8-0.7-4.3-1.2-7-1.2c-4.4,0-7,1.8-7,4.8v0.1c0,2.9,2.6,4.5,5.9,4.5
			c4.6,0,8.1-2.6,8.1-6.4V250.1z"/>
		<path class="st1" d="M782.9,232.2h7v4.8c2-2.9,4.8-5.4,9.6-5.4c6.9,0,10.9,4.6,10.9,11.8v19.5h-7v-17.4c0-4.8-2.4-7.5-6.6-7.5
			c-4.1,0-6.9,2.8-6.9,7.6v17.3h-7V232.2z"/>
		<path class="st1" d="M817.1,270.5l2.4-5.2c1.3,0.7,2.7,1.2,4.1,1.2c2,0,3.2-0.9,4.4-3.5l-12.8-30.7h7.5l8.7,22.8l8-22.8h7.3
			l-12.2,31.5c-2.4,6.3-5.2,8.6-10.1,8.6C821.4,272.4,819.2,271.7,817.1,270.5z"/>
	</g>
	<path class="st0" d="M114.1,238.6L78,176.2v-17.5c4.5-1.3,7.7-5.4,7.7-10.3c0-5.9-4.8-10.7-10.7-10.7H41.5
		c-5.9,0-10.7,4.8-10.7,10.7c0,4.9,3.3,9,7.7,10.3v17.5L2.4,238.6c-3.3,5.7-3.3,12.4,0,18.1c3.3,5.7,9.1,9,15.6,9h80.3
		c6.5,0,12.4-3.4,15.6-9C117.3,251,117.3,244.3,114.1,238.6z M41.5,143H75c3,0,5.4,2.4,5.4,5.4c0,1.8-0.9,3.5-2.4,4.4c0,0,0,0,0,0
		c-0.2,0.2-0.5,0.3-0.8,0.4c-0.1,0-0.2,0.1-0.3,0.1c-0.2,0.1-0.4,0.2-0.7,0.2c-0.1,0-0.2,0-0.3,0.1c-0.3,0.1-0.6,0.1-1,0.1h-2.4
		H43.9h-2.4c-0.3,0-0.7,0-1-0.1c-0.1,0-0.2,0-0.3-0.1c-0.2-0.1-0.4-0.1-0.7-0.2c-0.1,0-0.2-0.1-0.3-0.1c-0.3-0.1-0.5-0.3-0.8-0.4
		c0,0,0,0,0,0c-1.4-1-2.4-2.6-2.4-4.4C36.1,145.4,38.5,143,41.5,143z M109.4,254c-2.3,4-6.4,6.3-11,6.3H18.1c-4.6,0-8.7-2.4-11-6.3
		c-2.3-4-2.3-8.7,0-12.7l36.4-63.1c0.2-0.4,0.4-0.9,0.4-1.3v-17.8h28.8v17.8c0,0.5,0.1,0.9,0.4,1.3l36.4,63.1
		C111.7,245.3,111.7,250,109.4,254z"/>
</g>
</svg>
