<?xml version="1.0" encoding="utf-8"?>
<!-- Generator: Adobe Illustrator 22.1.0, SVG Export Plug-In . SVG Version: 6.00 Build 0)  -->
<svg version="1.1" id="Layer_1" xmlns="http://www.w3.org/2000/svg" xmlns:xlink="http://www.w3.org/1999/xlink" x="0px" y="0px"
	 viewBox="0 0 461.1 461.1" style="enable-background:new 0 0 461.1 461.1;" xml:space="preserve">
<style type="text/css">
	.st0{fill:none;stroke:#21C6CA;stroke-width:9.978;stroke-miterlimit:10;}
	.st1{fill:#21C6CA;}
</style>
<g>
	<g>
		<g>
			<g>
				<path class="st0" d="M280.2,146.4h-0.3v-11.7c0-3.7-3.1-6.8-6.8-6.8h-38c-3.7,0-6.8,3.1-6.8,6.8v11.7
					c-21.5,0.3-38.8,19.4-38.8,43v26.6v29.8v148.8h130.1V245.8v-29.8v-26.6C319.6,165.7,302,146.4,280.2,146.4z"/>
				<polygon class="st0" points="80.5,287.7 41.7,255 148.9,139.2 176.4,162.3 				"/>
				<polygon class="st1" points="180.6,143.2 167.9,132.5 156.1,145.3 170,157 				"/>
				<path class="st1" d="M235.1,127.9h38c2,0,3.7,0.8,5,2.2c3.3-3.2,5.4-7.7,5.4-12.6c0-9.1-7-16.6-15.9-17.3v-3.2
					c0-7.1-5.8-12.9-12.9-12.9h-1.3c-7.1,0-12.9,5.8-12.9,12.9v3.2c-8.9,0.8-15.9,8.2-15.9,17.3c0,5,2.1,9.5,5.4,12.6
					C231.4,128.8,233.1,127.9,235.1,127.9z"/>
				<path class="st1" d="M227.7,111.1c-3.6-0.1-7.7,0.1-12.1,0.7c-12.5,1.7-29.3,7.3-44.3,23.6l5.5,4.6c16.6-18,35.7-21.8,49-21.8
					c0-0.6,0.1-1.1,0.2-1.7C226.2,114.6,226.8,112.8,227.7,111.1z"/>
				<path class="st1" d="M338.7,71.2c-2.6-8.6-13.4-5-13.4-5L262.9,87c2.9,2.4,4.7,5.9,4.7,9.9v3.2c1.8,0.2,3.6,0.6,5.2,1.3
					c21.2-0.8,53.7-2.1,55.3-2.1c5.7,0,9.5,9.9,10.1,3.2c0.7-8.1-9.6-8.7-9.6-8.7L285.2,91c19.4-8.7,40.7-18.4,42-18.9
					C333,69.8,340.9,78.3,338.7,71.2z"/>
				<rect x="211.7" y="212.5" class="st0 rolloverstroke" width="85.7" height="85.7"/>
				<rect x="211.7" y="298.2" class="st0 rolloverstroke" width="85.7" height="24.5"/>
				<rect x="211.7" y="298.2" class="st0 rolloverstroke" width="43.3" height="24.5"/>
			</g>
		</g>
	</g>
	<g>
		<g>
			<g>
				<circle class="st0 rolloverstroke" cx="230.5" cy="229.5" r="225.6"/>
			</g>
		</g>
	</g>
</g>
</svg>
