<?xml version="1.0" encoding="utf-8"?>
<!-- Generator: Adobe Illustrator 23.0.1, SVG Export Plug-In . SVG Version: 6.00 Build 0)  -->
<svg version="1.1" id="Layer_1" xmlns="http://www.w3.org/2000/svg" xmlns:xlink="http://www.w3.org/1999/xlink" x="0px" y="0px"
	 viewBox="0 0 461.1 461.1" style="enable-background:new 0 0 461.1 461.1;" xml:space="preserve">
<style type="text/css">
	.st0{fill:none;stroke:#21C6CA;stroke-width:9.978;stroke-linejoin:round;stroke-miterlimit:10;}
	.st1{fill:none;stroke:#21C6CA;stroke-width:9.978;stroke-miterlimit:10;}
	.st2{fill:#21C6CA;}
</style>
<path class="st0" d="M420.4,204.7c-12.7-0.4-25.3-0.6-38-0.9c-1.1,0-1.8-0.3-2.4-1.4c-6.2-11.1-12.5-22.2-18.8-33.3
	c-3.4-6.1-7.8-11.5-13-16.2c-3.1-2.7-6.5-4.9-10.7-5.7c-14.3-2.9-28.7-5.8-42.9-8.9c-5.3-1.2-9.6-0.1-13.7,3.3
	c-6.3,5.4-12.8,10.5-19.2,15.8c-6.4,5.2-12.8,10.5-19.2,15.8c-5.2,4.3-5.7,11.7-1.3,16.8c4.2,4.9,11.6,5.2,16.7,1
	c10.1-8.4,20.3-16.7,30.5-25c0.5-0.4,1.3-0.6,1.9-0.5c4.3,0.8,8.5,1.8,12.7,2.6c3.5,0.7,7,1.4,10.6,2.2c-0.3,0.5-0.5,0.8-0.7,1.2
	c-9.4,14.6-18.9,29.1-28.3,43.7c-3.4,5.2-6.5,10.6-10.2,15.5c-8.3,10.8-16.8,21.4-25.3,32.1c-0.5,0.7-1.1,1-2,1
	c-15.4-0.7-30.8-1.3-46.3-1.9c-2.9-0.1-5.5,0.5-7.7,1.8c2.6,1.9,5.2,3.7,7.8,5.6c4.9,3.5,6.5,8.5,5.5,14.3c-0.3,2-1,4-2,5.8
	l-0.1,0.1c7.4,0.3,14.8,0.6,22.3,0.9c9.3,0.4,18.6,0.7,28,1c4.5,0.1,8.1-1.6,10.9-5.1c7.2-9.1,14.4-18.2,21.6-27.3
	c0.3-0.4,0.7-0.8,1.1-1.3c12.9,9.1,25.7,18.1,38.5,27.2c-0.1,0.3-0.1,0.5-0.2,0.6c-3.6,6.9-7.2,13.9-10.8,20.8
	c-3.2,6.3-6.6,12.5-9.7,18.8c-3,6.2-0.5,14,5.3,17.3c7.3,4.1,15.6,1.6,19.4-5.8c8.2-15.7,16.4-31.5,24.5-47.2c0.9-1.8,1.6-3.8,2-5.8
	c1-5.8-0.6-10.7-5.5-14.3c-10-7.2-20-14.3-30-21.5c-2.1-1.5-4.2-3-6.3-4.5c10-15.4,20-30.6,30-45.9c0.3,0.5,0.5,0.8,0.7,1.1
	c4.1,7.2,8.2,14.5,12.2,21.7c2.6,4.7,6.4,7,11.8,7c6.7,0.1,13.4,0.3,20.1,0.5c10,0.2,20.1,0.5,30.1,0.7c5.2,0.1,9.5-3,11.2-7.7
	C434.5,212.7,428.9,204.9,420.4,204.7z"/>
<path class="st0" d="M368.2,159.5c12.5,0.8,23.5-8.9,24.4-21.3c0.8-12.8-8.8-23.9-21.4-24.7c-13-0.8-23.7,8.8-24.5,22
	C346,147.7,355.8,158.7,368.2,159.5z"/>
<g>
	<g>
		<g>
			<circle class="st1 rolloverstroke" cx="230.5" cy="229.5" r="225.6"/>
		</g>
	</g>
</g>
<path class="st2 rolloverstroke rolloverfill" d="M283.66,207.15c-3.09-4.59-8.2-7.3-14.02-7.44c-8.51-0.27-17.11-0.45-25.43-0.62
	c-3.79-0.08-7.58-0.16-11.38-0.25c-6.02-10.77-12.2-21.66-18.17-32.17c-0.52-0.94-1.08-1.86-1.64-2.77c1.34,0.29,2.7,0.49,4.07,0.58
	c0,0,0,0,0,0c0.58,0.04,1.15,0.06,1.73,0.06c14.42,0,27.04-11.55,27.97-26.02c0.97-15.56-10.72-29.02-26.07-29.99
	c-7.64-0.47-14.9,2.02-20.46,7.02c-5.54,4.98-8.86,11.96-9.32,19.64c-0.19,2.83,0.09,5.63,0.79,8.34c-1.28-0.5-2.65-0.92-4.12-1.2
	l-3.4-0.69c-12.98-2.63-26.39-5.35-39.39-8.19c-6.75-1.53-12.63-0.11-18.05,4.38c-3.87,3.32-7.91,6.6-11.82,9.77
	c-2.44,1.98-4.89,3.97-7.28,5.95c-6.45,5.24-12.95,10.62-19.23,15.83c-3.52,2.91-5.66,6.96-6.03,11.41
	c-0.38,4.52,1.09,8.96,4.12,12.48c5.94,6.93,16.33,7.64,23.68,1.59c9.82-8.17,19.84-16.32,29.52-24.2c1.8,0.35,3.61,0.74,5.37,1.11
	c1.99,0.42,4.05,0.86,6.05,1.24c1.16,0.23,2.34,0.47,3.52,0.71c-3.65,5.65-7.31,11.29-10.98,16.93
	c-4.73,7.28-9.46,14.56-14.14,21.84c-1.1,1.68-2.17,3.38-3.23,5.08c-2.25,3.59-4.38,6.98-6.75,10.11
	c-6.76,8.8-13.8,17.64-20.61,26.2l-3.89,4.9c-14.32-0.65-28.29-1.19-44.97-1.84c-7.55-0.25-13.72,3.15-17.45,9.68
	c-3.13,5.69-3.1,12.46,0.09,18.11c3.21,5.68,9.03,9.23,15.56,9.48c4.56,0.2,9.09,0.38,13.63,0.55c4.52,0.17,9.03,0.35,13.58,0.55
	c9.61,0.41,19.41,0.73,28.1,1c5.99,0.15,11.15-2.28,14.92-6.99l19.73-24.93l5.06,3.57c8.58,6.05,17.42,12.28,26.15,18.48
	c-1.24,2.38-2.47,4.76-3.71,7.15c-1.79,3.45-3.58,6.91-5.39,10.39c-1.33,2.61-2.69,5.21-4.05,7.8c-1.89,3.61-3.85,7.33-5.7,11.09
	c-4.11,8.49-0.82,19.17,7.35,23.82c3.07,1.73,6.39,2.61,9.67,2.61c1.77,0,3.53-0.25,5.24-0.77c4.87-1.47,8.91-4.91,11.36-9.68
	c8.11-15.52,16.35-31.41,24.54-47.28c1.11-2.22,1.95-4.66,2.43-7.05c0.01-0.04,0.02-0.09,0.02-0.13c1.37-7.95-1.21-14.58-7.5-19.2
	c-5-3.6-10.01-7.18-15.01-10.76c-5-3.57-9.99-7.14-15-10.75l-2.42-1.72c5.82-8.95,11.7-17.92,17.4-26.63
	c1.85-2.82,3.7-5.65,5.55-8.47c2.88,5.1,5.83,10.36,8.8,15.7c3.51,6.35,8.95,9.57,16.09,9.57c6.69,0.1,13.47,0.3,20.07,0.5
	c4.99,0.1,10.01,0.22,15.03,0.35c5.03,0.12,10.07,0.25,15.08,0.35c0.11,0,0.23,0,0.34,0c7.1,0,13.22-4.29,15.62-10.92
	C287.24,217.16,286.66,211.61,283.66,207.15z M200.88,135.8c0.31-5.07,2.45-9.63,6.03-12.84c3.56-3.19,8.25-4.78,13.18-4.48
	c9.86,0.63,17.37,9.33,16.74,19.4c-0.62,9.64-9.35,17.25-19.1,16.64c-4.7-0.3-9.23-2.57-12.44-6.23
	C202.15,144.73,200.58,140.3,200.88,135.8z M275.91,218.9c-1,2.78-3.47,4.43-6.41,4.41c-4.99-0.1-10.01-0.23-15.03-0.35
	c-5.03-0.13-10.07-0.25-15.03-0.35c-6.59-0.2-13.41-0.4-20.25-0.5c-3.54,0-5.7-1.28-7.44-4.43c-4.16-7.49-8.27-14.81-12.23-21.75
	c-0.06-0.1-0.12-0.2-0.19-0.3c-0.16-0.24-0.33-0.49-0.57-0.89c-0.88-1.47-2.46-2.39-4.18-2.42c-1.69-0.02-3.33,0.82-4.27,2.26
	c-3.33,5.09-6.65,10.17-9.98,15.25c-6.56,10.02-13.35,20.38-20.03,30.66c-1.45,2.24-0.89,5.22,1.28,6.78l6.28,4.49
	c5,3.6,10.01,7.18,15.01,10.76c5,3.57,9.99,7.14,14.95,10.71c3.15,2.32,4.25,5.21,3.55,9.37c-0.31,1.51-0.85,3.06-1.53,4.43
	c-8.15,15.8-16.39,31.67-24.5,47.21c-1.21,2.36-3.12,4.03-5.37,4.71c-2.27,0.69-4.81,0.33-7.12-0.97c-3.61-2.06-5.11-7-3.29-10.76
	c1.78-3.61,3.7-7.28,5.56-10.83c1.38-2.63,2.76-5.26,4.08-7.87c1.79-3.44,3.59-6.9,5.38-10.36c1.76-3.41,3.53-6.81,5.29-10.19
	c0.43-0.7,0.59-1.35,0.67-1.69c0.63-2.05-0.12-4.28-1.88-5.53c-9.87-7.02-19.92-14.1-29.65-20.96l-8.87-6.25
	c-2.16-1.52-5.12-1.1-6.77,0.96c-0.13,0.17-0.27,0.32-0.4,0.46c-0.28,0.31-0.53,0.61-0.75,0.9l-21.55,27.24
	c-1.84,2.3-3.98,3.29-6.85,3.23c-8.62-0.28-18.39-0.59-27.94-1c-4.56-0.2-9.09-0.38-13.63-0.55c-4.52-0.17-9.03-0.35-13.6-0.55
	c-3.11-0.12-5.77-1.73-7.29-4.42c-1.5-2.65-1.51-5.71-0.08-8.32c1.87-3.27,4.54-4.72,8.38-4.59c17.17,0.66,31.49,1.23,46.27,1.9
	c0.08,0,0.15,0.01,0.23,0.01c2.47,0,4.53-1.02,5.97-2.96l4.58-5.76c6.83-8.58,13.9-17.46,20.73-26.36c2.65-3.51,5-7.25,7.26-10.85
	c1.03-1.65,2.07-3.29,3.15-4.95c4.7-7.29,9.42-14.56,14.14-21.83c4.73-7.28,9.46-14.56,14.16-21.87c0.1-0.15,0.19-0.31,0.27-0.47
	c0.08-0.17,0.17-0.3,0.28-0.47l0.24-0.39c0.83-1.38,0.94-3.06,0.31-4.54c-0.63-1.47-1.94-2.55-3.5-2.9
	c-3.67-0.82-7.25-1.53-10.75-2.23c-1.96-0.37-3.91-0.79-5.88-1.21c-2.22-0.47-4.52-0.96-6.93-1.41c-2.01-0.34-4.24,0.25-5.87,1.55
	c-10.02,8.15-20.37,16.58-30.52,25.02c-3.09,2.54-7.37,2.37-9.75-0.41c-1.28-1.48-1.9-3.31-1.75-5.13c0.15-1.76,1.02-3.38,2.45-4.56
	c6.27-5.19,12.75-10.56,19.2-15.8c2.4-1.99,4.82-3.95,7.24-5.92c3.96-3.21,8.05-6.54,11.96-9.89c2.96-2.46,5.69-3.12,9.45-2.27
	c13.11,2.86,26.57,5.59,39.58,8.23l3.45,0.7c2.76,0.53,5.34,1.93,8.29,4.5c4.9,4.43,8.94,9.46,12.01,14.96
	c6.18,10.9,12.58,22.16,18.76,33.23c0.99,1.81,2.96,3.97,6.71,4c4.2,0.1,8.38,0.19,12.57,0.28c8.3,0.18,16.88,0.36,25.34,0.62
	c0.01,0,0.03,0,0.04,0c2.55,0.06,4.74,1.17,6,3.03C276.56,214.48,276.76,216.65,275.91,218.9z"/>
</svg>
