<?xml version="1.0" encoding="utf-8"?>
<!-- Generator: Adobe Illustrator 22.1.0, SVG Export Plug-In . SVG Version: 6.00 Build 0)  -->
<svg version="1.1" id="Layer_1" xmlns="http://www.w3.org/2000/svg" xmlns:xlink="http://www.w3.org/1999/xlink" x="0px" y="0px"
	 viewBox="0 0 461.1 461.1" style="enable-background:new 0 0 461.1 461.1;" xml:space="preserve">
<style type="text/css">
	.st0{fill:none;stroke:#21C6CA;stroke-width:9.978;stroke-miterlimit:10;}
</style>
<g>
	<g>
		<g>
			<path class="st0" d="M269.5,204.7c-12.7-0.4-25.3-0.6-38-0.9c-1.1,0-1.8-0.3-2.4-1.4c-6.2-11.1-12.5-22.2-18.8-33.3
				c-3.4-6.1-7.8-11.5-13-16.2c-3.1-2.7-6.5-4.9-10.7-5.7c-14.3-2.9-28.7-5.8-42.9-8.9c-5.3-1.2-9.6-0.1-13.7,3.3
				c-6.3,5.4-12.8,10.5-19.2,15.8c-6.4,5.2-12.8,10.5-19.2,15.8c-5.2,4.3-5.7,11.7-1.3,16.8c4.2,4.9,11.6,5.2,16.7,1
				c10.1-8.4,20.3-16.7,30.5-25c0.5-0.4,1.3-0.6,1.9-0.5c4.3,0.8,8.5,1.8,12.7,2.6c3.5,0.7,7,1.4,10.6,2.2c-0.3,0.5-0.5,0.8-0.7,1.2
				c-9.4,14.6-18.9,29.1-28.3,43.7c-3.4,5.2-6.5,10.6-10.2,15.5c-8.3,10.8-16.8,21.4-25.3,32.1c-0.5,0.7-1.1,1-2,1
				c-15.4-0.7-30.8-1.3-46.3-1.9c-5.7-0.2-10.1,2.2-12.9,7.1c-4.9,8.9,1.3,19.8,11.5,20.2c9.1,0.4,18.1,0.7,27.2,1.1
				c9.3,0.4,18.6,0.7,28,1c4.5,0.1,8.1-1.6,10.9-5.1c7.2-9.1,14.4-18.2,21.6-27.3c0.3-0.4,0.7-0.8,1.1-1.3
				c12.9,9.1,25.7,18.1,38.5,27.2c-0.1,0.3-0.1,0.5-0.2,0.6c-3.6,6.9-7.2,13.9-10.8,20.8c-3.2,6.3-6.6,12.5-9.7,18.8
				c-3,6.2-0.5,14,5.3,17.3c7.3,4.1,15.6,1.6,19.4-5.8c8.2-15.7,16.4-31.5,24.5-47.2c0.9-1.8,1.6-3.8,2-5.8c1-5.8-0.6-10.7-5.5-14.3
				c-10-7.2-20-14.3-30-21.5c-2.1-1.5-4.2-3-6.3-4.5c10-15.4,20-30.6,30-45.9c0.3,0.5,0.5,0.8,0.7,1.1c4.1,7.2,8.2,14.5,12.2,21.7
				c2.6,4.7,6.4,7,11.8,7c6.7,0.1,13.4,0.3,20.1,0.5c10,0.2,20.1,0.5,30.1,0.7c5.2,0.1,9.5-3,11.2-7.7
				C283.6,212.7,278.1,204.9,269.5,204.7z"/>
			<path class="st0" d="M217.4,159.5c12.5,0.8,23.6-8.9,24.4-21.3c0.8-12.8-8.8-23.9-21.4-24.7c-13-0.8-23.7,8.8-24.5,22
				C195.1,147.7,205,158.7,217.4,159.5z"/>
		</g>
		<path class="st0" d="M420.4,204.7c-12.7-0.4-25.3-0.6-38-0.9c-1.1,0-1.8-0.3-2.4-1.4c-6.2-11.1-12.5-22.2-18.8-33.3
			c-3.4-6.1-7.8-11.5-13-16.2c-3.1-2.7-6.5-4.9-10.7-5.7c-14.3-2.9-28.7-5.8-42.9-8.9c-5.3-1.2-9.6-0.1-13.7,3.3
			c-6.3,5.4-12.8,10.5-19.2,15.8c-6.4,5.2-12.8,10.5-19.2,15.8c-5.2,4.3-5.7,11.7-1.3,16.8c4.2,4.9,11.6,5.2,16.7,1
			c10.1-8.4,20.3-16.7,30.5-25c0.5-0.4,1.3-0.6,1.9-0.5c4.3,0.8,8.5,1.8,12.7,2.6c3.5,0.7,7,1.4,10.6,2.2c-0.3,0.5-0.5,0.8-0.7,1.2
			c-9.4,14.6-18.9,29.1-28.3,43.7c-3.4,5.2-6.5,10.6-10.2,15.5c-8.3,10.8-16.8,21.4-25.3,32.1c-0.5,0.7-1.1,1-2,1
			c-15.4-0.7-30.8-1.3-46.3-1.9c-2.9-0.1-5.5,0.5-7.7,1.8c2.6,1.9,5.2,3.7,7.8,5.6c4.9,3.5,6.5,8.5,5.5,14.3c-0.3,2-1,4-2,5.8
			c0,0-0.1,0.1-0.1,0.1c7.4,0.3,14.8,0.6,22.3,0.9c9.3,0.4,18.6,0.7,28,1c4.5,0.1,8.1-1.6,10.9-5.1c7.2-9.1,14.4-18.2,21.6-27.3
			c0.3-0.4,0.7-0.8,1.1-1.3c12.9,9.1,25.7,18.1,38.5,27.2c-0.1,0.3-0.1,0.5-0.2,0.6c-3.6,6.9-7.2,13.9-10.8,20.8
			c-3.2,6.3-6.6,12.5-9.7,18.8c-3,6.2-0.5,14,5.3,17.3c7.3,4.1,15.6,1.6,19.4-5.8c8.2-15.7,16.4-31.5,24.5-47.2
			c0.9-1.8,1.6-3.8,2-5.8c1-5.8-0.6-10.7-5.5-14.3c-10-7.2-20-14.3-30-21.5c-2.1-1.5-4.2-3-6.3-4.5c10-15.4,20-30.6,30-45.9
			c0.3,0.5,0.5,0.8,0.7,1.1c4.1,7.2,8.2,14.5,12.2,21.7c2.6,4.7,6.4,7,11.8,7c6.7,0.1,13.4,0.3,20.1,0.5c10,0.2,20.1,0.5,30.1,0.7
			c5.2,0.1,9.5-3,11.2-7.7C434.5,212.7,428.9,204.9,420.4,204.7z"/>
		<path class="st0" d="M368.2,159.5c12.5,0.8,23.5-8.9,24.4-21.3c0.8-12.8-8.8-23.9-21.4-24.7c-13-0.8-23.7,8.8-24.5,22
			C346,147.7,355.8,158.7,368.2,159.5z"/>
	</g>
	<g>
		<g>
			<g>
				<circle class="st0" cx="230.5" cy="229.5" r="225.6"/>
			</g>
		</g>
	</g>
</g>
</svg>
