<?xml version="1.0" encoding="utf-8"?>
<!-- Generator: Adobe Illustrator 23.0.1, SVG Export Plug-In . SVG Version: 6.00 Build 0)  -->
<svg version="1.1" id="Layer_1" xmlns="http://www.w3.org/2000/svg" xmlns:xlink="http://www.w3.org/1999/xlink" x="0px" y="0px"
	 viewBox="0 0 600 300" style="enable-background:new 0 0 600 300;" xml:space="preserve">
<style type="text/css">
	.st0{fill:#21C6CA;}
	.st1{fill:#FFFFFF;}
</style>
<g>
	<g>
		<g>
			<g>
				<path class="st0" d="M150,300c-40.07,0-77.73-15.6-106.07-43.93C15.6,227.73,0,190.07,0,150c0-40.07,15.6-77.73,43.93-106.07
					C72.27,15.6,109.93,0,150,0c40.07,0,77.73,15.6,106.07,43.93C284.4,72.27,300,109.93,300,150s-15.6,77.74-43.93,106.07
					C227.74,284.4,190.07,300,150,300z M150,6.49c-38.33,0-74.37,14.93-101.48,42.03S6.49,111.67,6.49,150
					c0,38.33,14.93,74.37,42.03,101.48s63.14,42.03,101.48,42.03c38.33,0,74.37-14.93,101.48-42.03
					c27.11-27.1,42.03-63.14,42.03-101.48c0-38.33-14.93-74.37-42.03-101.48S188.33,6.49,150,6.49z"/>
			</g>
		</g>
	</g>
	<rect x="43.06" y="209.66" class="st0" width="203.67" height="6.49"/>
	<path class="st0" d="M85.34,176.66c-6.13,0-11.12-4.99-11.12-11.12c0-6.13,4.99-11.12,11.12-11.12c6.13,0,11.12,4.99,11.12,11.12
		C96.46,171.68,91.47,176.66,85.34,176.66z M85.34,160.92c-2.55,0-4.63,2.08-4.63,4.63c0,2.55,2.08,4.63,4.63,4.63
		c2.55,0,4.63-2.07,4.63-4.63C89.97,163,87.89,160.92,85.34,160.92z"/>
	<path class="st0" d="M185.13,112.59c-6.13,0-11.12-4.99-11.12-11.12s4.99-11.12,11.12-11.12s11.12,4.99,11.12,11.12
		S191.26,112.59,185.13,112.59z M185.13,96.85c-2.55,0-4.63,2.08-4.63,4.63s2.07,4.63,4.63,4.63s4.63-2.08,4.63-4.63
		S187.68,96.85,185.13,96.85z"/>
	<path class="st0" d="M108.5,196.83c-6.09,0-11.05-4.96-11.05-11.05s4.96-11.05,11.05-11.05s11.05,4.96,11.05,11.05
		S114.59,196.83,108.5,196.83z M108.5,181.22c-2.51,0-4.56,2.05-4.56,4.56c0,2.51,2.05,4.56,4.56,4.56s4.56-2.05,4.56-4.56
		C113.06,183.26,111.01,181.22,108.5,181.22z"/>
	<path class="st0" d="M207.11,143.55c-6.09,0-11.05-4.96-11.05-11.05s4.96-11.05,11.05-11.05s11.05,4.96,11.05,11.05
		S213.21,143.55,207.11,143.55z M207.11,127.94c-2.52,0-4.56,2.05-4.56,4.56c0,2.51,2.05,4.56,4.56,4.56c2.51,0,4.56-2.05,4.56-4.56
		C211.68,129.99,209.63,127.94,207.11,127.94z"/>
	<path class="st0" d="M253.17,98.67c-6.09,0-11.05-4.96-11.05-11.05c0-6.09,4.96-11.05,11.05-11.05c6.09,0,11.05,4.96,11.05,11.05
		C264.22,93.71,259.26,98.67,253.17,98.67z M253.17,83.06c-2.51,0-4.56,2.05-4.56,4.56c0,2.51,2.05,4.56,4.56,4.56
		s4.56-2.05,4.56-4.56C257.73,85.1,255.69,83.06,253.17,83.06z"/>
	
		<rect x="205.97" y="107.07" transform="matrix(0.7078 -0.7064 0.7064 0.7078 -10.6156 194.9746)" class="st0" width="48.8" height="6.49"/>
	
		<rect x="97.78" y="140.64" transform="matrix(0.6642 -0.7476 0.7476 0.6642 -58.2183 158.1694)" class="st0" width="98.33" height="6.49"/>
	
		<rect x="192.81" y="105.83" transform="matrix(0.832 -0.5547 0.5547 0.832 -32.019 128.4184)" class="st0" width="6.49" height="22.52"/>
	
		<rect x="38.31" y="180.74" transform="matrix(0.791 -0.6119 0.6119 0.791 -99.823 75.7908)" class="st0" width="45.4" height="6.49"/>
	
		<rect x="93.61" y="168.18" transform="matrix(0.6876 -0.7261 0.7261 0.6876 -97.3815 125.2313)" class="st0" width="6.49" height="15.23"/>
</g>
<g>
	<g>
		<g>
			<g>
				<path class="st1" d="M450,300c-40.07,0-77.73-15.6-106.07-43.93C315.6,227.73,300,190.07,300,150
					c0-40.07,15.6-77.73,43.93-106.07C372.27,15.6,409.93,0,450,0c40.07,0,77.73,15.6,106.07,43.93C584.4,72.27,600,109.93,600,150
					s-15.6,77.74-43.93,106.07C527.74,284.4,490.07,300,450,300z M450,6.49c-38.33,0-74.37,14.93-101.48,42.03
					c-27.11,27.11-42.03,63.14-42.03,101.48c0,38.33,14.93,74.37,42.03,101.48c27.11,27.11,63.14,42.03,101.48,42.03
					c38.33,0,74.37-14.93,101.48-42.03c27.11-27.1,42.03-63.14,42.03-101.48c0-38.33-14.93-74.37-42.03-101.48S488.33,6.49,450,6.49
					z"/>
			</g>
		</g>
	</g>
	
		<rect x="505.97" y="107.07" transform="matrix(0.7078 -0.7064 0.7064 0.7078 77.047 406.901)" class="st0" width="48.8" height="6.49"/>
	
		<rect x="397.78" y="140.64" transform="matrix(0.6642 -0.7476 0.7476 0.6642 42.5272 382.4408)" class="st0" width="98.33" height="6.49"/>
	
		<rect x="492.81" y="105.83" transform="matrix(0.832 -0.5547 0.5547 0.832 18.3672 294.8305)" class="st0" width="6.49" height="22.52"/>
	
		<rect x="338.31" y="180.74" transform="matrix(0.791 -0.6119 0.6119 0.791 -37.1116 259.3504)" class="st0" width="45.4" height="6.49"/>
	
		<rect x="393.61" y="168.18" transform="matrix(0.6876 -0.7261 0.7261 0.6876 -3.6733 343.047)" class="st0" width="6.49" height="15.23"/>
	<rect x="343.06" y="209.66" class="st0" width="203.67" height="6.49"/>
	<path class="st1" d="M385.34,160.92c-2.55,0-4.63,2.08-4.63,4.63c0,2.55,2.08,4.63,4.63,4.63c2.55,0,4.63-2.07,4.63-4.63
		C389.97,163,387.89,160.92,385.34,160.92z M385.34,176.66c-6.13,0-11.12-4.99-11.12-11.12c0-6.13,4.99-11.12,11.12-11.12
		c6.13,0,11.12,4.99,11.12,11.12C396.46,171.68,391.47,176.66,385.34,176.66z"/>
	<path class="st1" d="M485.13,96.85c-2.55,0-4.63,2.08-4.63,4.63s2.07,4.63,4.63,4.63c2.55,0,4.63-2.08,4.63-4.63
		S487.68,96.85,485.13,96.85z M485.13,112.59c-6.13,0-11.12-4.99-11.12-11.12s4.99-11.12,11.12-11.12c6.13,0,11.12,4.99,11.12,11.12
		S491.26,112.59,485.13,112.59z"/>
	<path class="st1" d="M408.5,181.22c-2.51,0-4.56,2.05-4.56,4.56c0,2.51,2.05,4.56,4.56,4.56c2.51,0,4.56-2.05,4.56-4.56
		C413.06,183.26,411.01,181.22,408.5,181.22z M408.5,196.83c-6.09,0-11.05-4.96-11.05-11.05s4.96-11.05,11.05-11.05
		s11.05,4.96,11.05,11.05S414.59,196.83,408.5,196.83z"/>
	<path class="st1" d="M507.11,127.94c-2.51,0-4.56,2.05-4.56,4.56c0,2.51,2.05,4.56,4.56,4.56c2.52,0,4.56-2.05,4.56-4.56
		C511.68,129.99,509.63,127.94,507.11,127.94z M507.11,143.55c-6.09,0-11.05-4.96-11.05-11.05s4.96-11.05,11.05-11.05
		s11.05,4.96,11.05,11.05S513.21,143.55,507.11,143.55z"/>
	<path class="st1" d="M553.17,83.06c-2.52,0-4.56,2.05-4.56,4.56c0,2.51,2.05,4.56,4.56,4.56c2.51,0,4.56-2.05,4.56-4.56
		C557.73,85.1,555.69,83.06,553.17,83.06z M553.17,98.67c-6.09,0-11.05-4.96-11.05-11.05c0-6.09,4.96-11.05,11.05-11.05
		c6.09,0,11.05,4.96,11.05,11.05C564.22,93.71,559.26,98.67,553.17,98.67z"/>
</g>
</svg>
