<?xml version="1.0" encoding="utf-8"?>
<!-- Generator: Adobe Illustrator 23.0.1, SVG Export Plug-In . SVG Version: 6.00 Build 0)  -->
<svg version="1.1" id="Layer_1" xmlns="http://www.w3.org/2000/svg" xmlns:xlink="http://www.w3.org/1999/xlink" x="0px" y="0px"
	 viewBox="0 0 461.1 461.1" style="enable-background:new 0 0 461.1 461.1;" xml:space="preserve">
<style type="text/css">
	.st0{fill:none;stroke:#21C6CA;stroke-width:9.978;stroke-miterlimit:10;}
	.st1{fill:#21C6CA;}
</style>
<g>
	<g>
		<g>
			<circle class="st0 rolloverstroke" cx="230.5" cy="229.5" r="225.6"/>
		</g>
	</g>
</g>
<line class="st0" x1="66.1" y1="326.2" x2="379.2" y2="326.2"/>
<line class="st0" x1="380.6" y1="142" x2="327.5" y2="195"/>
<line class="st0" x1="276" y1="163.6" x2="175.6" y2="276.6"/>
<line class="st0" x1="310.9" y1="193.3" x2="291.7" y2="164.5"/>
<line class="st0" x1="121.3" y1="260.4" x2="66.1" y2="303.1"/>
<line class="st0" x1="157.3" y1="277.2" x2="140.3" y2="261.1"/>
<g>
	<path class="st1 rolloverfill" d="M131.1,270.49c-9.42,0-17.09-7.67-17.09-17.09s7.67-17.09,17.09-17.09s17.09,7.67,17.09,17.09
		S140.52,270.49,131.1,270.49z M131.1,246.29c-3.92,0-7.11,3.19-7.11,7.11s3.19,7.11,7.11,7.11s7.11-3.19,7.11-7.11
		S135.02,246.29,131.1,246.29z"/>
	<path class="st1 rolloverfill" d="M284.5,171.99c-9.42,0-17.09-7.67-17.09-17.09s7.67-17.09,17.09-17.09s17.09,7.67,17.09,17.09
		S293.92,171.99,284.5,171.99z M284.5,147.79c-3.92,0-7.11,3.19-7.11,7.11s3.19,7.11,7.11,7.11s7.11-3.19,7.11-7.11
		S288.42,147.79,284.5,147.79z"/>
	<path class="st1 rolloverfill" d="M166.7,301.49c-9.37,0-16.99-7.62-16.99-16.99s7.62-16.99,16.99-16.99s16.99,7.62,16.99,16.99
		S176.07,301.49,166.7,301.49z M166.7,277.49c-3.87,0-7.01,3.14-7.01,7.01s3.15,7.01,7.01,7.01s7.01-3.14,7.01-7.01
		S170.57,277.49,166.7,277.49z"/>
	<path class="st1 rolloverfill" d="M318.3,219.59c-9.37,0-16.99-7.62-16.99-16.99s7.62-16.99,16.99-16.99s16.99,7.62,16.99,16.99
		S327.67,219.59,318.3,219.59z M318.3,195.59c-3.87,0-7.01,3.15-7.01,7.01s3.14,7.01,7.01,7.01s7.01-3.15,7.01-7.01
		S322.17,195.59,318.3,195.59z"/>
	<path class="st1 rolloverfill" d="M389.1,150.59c-9.37,0-16.99-7.62-16.99-16.99s7.62-16.99,16.99-16.99s16.99,7.62,16.99,16.99
		S398.47,150.59,389.1,150.59z M389.1,126.59c-3.87,0-7.01,3.15-7.01,7.01s3.14,7.01,7.01,7.01s7.01-3.15,7.01-7.01
		S392.97,126.59,389.1,126.59z"/>
</g>
</svg>
