<?xml version="1.0" encoding="utf-8"?>
<!-- Generator: Adobe Illustrator 22.1.0, SVG Export Plug-In . SVG Version: 6.00 Build 0)  -->
<svg version="1.1" id="Layer_1" xmlns="http://www.w3.org/2000/svg" xmlns:xlink="http://www.w3.org/1999/xlink" x="0px" y="0px"
	 viewBox="0 0 461.1 461.1" style="enable-background:new 0 0 461.1 461.1;" xml:space="preserve">
<style type="text/css">
	.st0{fill:none;stroke:#21C6CA;stroke-width:9.978;stroke-miterlimit:10;}
	.st1{fill:none;stroke:#21C6CA;stroke-width:9.978;stroke-linecap:round;stroke-linejoin:round;stroke-miterlimit:10;}
	.st2{fill:#21C6CA;}
</style>
<g>
	<g>
		<g>
			<g>
				<circle class="st0 rolloverstroke" cx="230.5" cy="229.5" r="225.6"/>
			</g>
		</g>
	</g>
	<g>
		<path class="st0" d="M230.5,281.6c-60.4,0-109.5-18.7-109.5,17.3c0,47.9,49,86.7,109.5,86.7c60.4,0,109.5-38.8,109.5-86.7
			C340,262.9,291,281.6,230.5,281.6z"/>
		<g>
			<g>
				<g>
					<circle class="st0 rolloverstroke" cx="230.5" cy="196.2" r="49.8"/>
				</g>
			</g>
		</g>
		<g>
			<g>
				<g>
					<g>
						<ellipse class="st0" cx="336.6" cy="196.2" rx="16.3" ry="49.8"/>
					</g>
				</g>
			</g>
			<g>
				<g>
					<g>
						<ellipse class="st0" cx="124.5" cy="196.2" rx="16.3" ry="49.8"/>
					</g>
				</g>
			</g>
		</g>
		<g>
			<g>
				<g>
					<ellipse class="st0" cx="230.5" cy="89.8" rx="49.8" ry="16.3"/>
				</g>
			</g>
		</g>
		<path class="st1" d="M304.5,276.8c9.4-8.6,17.3-18.8,23.2-30.2c1.4-2.6,1.4-5.8,0.1-8.4c-4.5-8.9-7.5-24.3-7.5-42
			c0-20.4,4-37.9,9.8-45.6c-11-23.9-30.3-43.1-54.2-54c-7.9,5.6-25.2,9.5-45.3,9.5s-37.4-3.9-45.3-9.5c-23.9,10.9-43.2,30.1-54.2,54
			c5.7,7.7,9.8,25.2,9.8,45.6c0,17.6-3,33.1-7.5,42c-1.4,2.7-1.3,5.8,0.1,8.4c5.9,11.4,13.8,21.6,23.2,30.2
			c19.5,0.6,45.4,4.8,74,4.8S285,277.4,304.5,276.8z"/>
		<line class="st0 rolloverstroke" x1="213.9" y1="148.8" x2="213.9" y2="243.6"/>
		<line class="st0 rolloverstroke" x1="247.1" y1="148.8" x2="247.1" y2="243.6"/>
		<line class="st0 rolloverstroke" x1="277.8" y1="179.6" x2="183" y2="179.6"/>
		<line class="st0 rolloverstroke" x1="277.8" y1="212.9" x2="183" y2="212.9"/>
		<g>
			<circle class="st2 rolloverfill" cx="163.6" cy="314.9" r="7.1"/>
			<circle class="st2 rolloverfill" cx="297.5" cy="314.9" r="7.1"/>
		</g>
		<g>
			<circle class="st2 rolloverfill" cx="202.7" cy="338.2" r="7.1"/>
			<circle class="st2 rolloverfill" cx="258.4" cy="338.2" r="7.1"/>
		</g>
	</g>
</g>
</svg>
