<?xml version="1.0" encoding="utf-8"?>
<!-- Generator: Adobe Illustrator 22.1.0, SVG Export Plug-In . SVG Version: 6.00 Build 0)  -->
<svg version="1.1" id="Layer_1" xmlns="http://www.w3.org/2000/svg" xmlns:xlink="http://www.w3.org/1999/xlink" x="0px" y="0px"
	 viewBox="0 0 461.1 461.1" style="enable-background:new 0 0 461.1 461.1;" xml:space="preserve">
<style type="text/css">
	.st0{fill:none;stroke:#21C6CA;stroke-width:9.978;stroke-miterlimit:10;}
	.st1{fill:#21C6CA;}
</style>
<g>
	<g>
		<g>
			<g>
				<circle class="st0 rolloverstroke" cx="230.5" cy="229.5" r="225.6"/>
			</g>
		</g>
	</g>
	<g>
		<g>
			<line class="st0 rolloverstroke" x1="195.2" y1="357.1" x2="266.3" y2="357.1"/>
			<path class="st0 rolloverstroke" d="M341.2,283.1c0.2-2.5,0.3-5,0.3-7.4c0-24-33.8-42.6-60.5-46.3c-20.6-2.9-20.7-19.2-20.7-19.2v-0.7
				c0-5.4,1.8-10.6,5.1-15c1.4-1.8,2.7-3.9,4-6.1c8.7-14.7,14-38.9,14-56.9c0-40.3-20.8-64.1-53.2-64.1c-32.4,0-53.2,23.8-53.2,64.1
				c0,17.2,4.8,40.6,12.8,54.9c1.8,3.3,3.7,6.1,5.5,8.6c3.4,4.4,5.3,9.7,5.3,15.2v0c0,0-0.2,16.3-20.7,19.2
				c-26.6,3.7-60.5,22.4-60.5,46.3c0,0-0.1,3.8,0.3,10.3"/>
		</g>
		<path class="st0" d="M143.5,280.7c-30.7,0-55.5,24.9-55.5,55.5s24.9,55.5,55.5,55.5s55.5-24.9,55.5-55.5S174.2,280.7,143.5,280.7z
			"/>
		<path class="st0" d="M317.6,279.2c-30.7,0-55.5,24.9-55.5,55.5s24.9,55.5,55.5,55.5s55.5-24.9,55.5-55.5S348.3,279.2,317.6,279.2z
			"/>
	</g>
	<polygon class="st1" points="174.3,356.6 163.8,367 143.5,346.7 123.2,367 112.7,356.6 133,336.3 112.7,316 123.2,305.5 
		143.5,325.8 163.8,305.5 174.3,316 154,336.3 	"/>
	<polygon class="st1" points="304.1,367 303.9,366.9 303.8,367 280.4,343.6 290.8,333.1 303.9,346.2 344.7,305.5 355.1,316 	"/>
</g>
</svg>
