<?xml version="1.0" encoding="utf-8"?>
<!-- Generator: Adobe Illustrator 23.0.1, SVG Export Plug-In . SVG Version: 6.00 Build 0)  -->
<svg version="1.1" id="Layer_1" xmlns="http://www.w3.org/2000/svg" xmlns:xlink="http://www.w3.org/1999/xlink" x="0px" y="0px"
	 viewBox="0 0 461.1 461.1" style="enable-background:new 0 0 461.1 461.1;" xml:space="preserve">
<style type="text/css">
	.st0{fill:none;stroke:#21C6CA;stroke-width:9.978;stroke-miterlimit:10;}
	.st1{fill:#21C6CA;}
</style>

<circle class="st0 rolloverstroke" cx="230.5" cy="230.5" r="225.7"/>

<ellipse class="st0" cx="230.5" cy="230.58" rx="102.1" ry="102.1"/>
<path class="st0" d="M230.5,270.8c-22.2,0-40.3-18.1-40.3-40.2s18.1-40.2,40.3-40.2s40.2,18.1,40.2,40.2S252.7,270.8,230.5,270.8z"
	/>
<path class="st0" d="M362.9,134.2l-10,10l-31.3-4.1l-4.1-31.3l10.1-10.1c-27.2-20-60.7-31.9-97-31.9c-90.4,0-163.9,73.5-163.9,163.9
	s73.5,163.9,163.9,163.9s163.9-73.5,163.9-163.9C394.4,194.5,382.7,161.2,362.9,134.2z"/>
<path class="st1 rolloverfill" d="M396.19,107.96l-31.09-4.06l6.3-6.3l-7.4-7.4l-6.31,6.31l-4.06-30.98l-41.5,41.37l4.06,31.1L225,229.2
	c-2.1,2-2.1,5.3,0,7.4c2.1,2,5.4,2,7.4,0l91.2-91.2l31.1,4.06L396.19,107.96z M322.67,110.5l23.7-23.63l2.43,18.54l-23.7,23.7
	L322.67,110.5z M332.5,136.5l23.7-23.7l18.61,2.43l-23.7,23.7L332.5,136.5z"/>
</svg>
