<?xml version="1.0" encoding="utf-8"?>
<!-- Generator: Adobe Illustrator 22.1.0, SVG Export Plug-In . SVG Version: 6.00 Build 0)  -->
<svg version="1.1" id="Layer_1" xmlns="http://www.w3.org/2000/svg" xmlns:xlink="http://www.w3.org/1999/xlink" x="0px" y="0px"
	 viewBox="0 0 461.1 461.1" style="enable-background:new 0 0 461.1 461.1;" xml:space="preserve">
<style type="text/css">
	.st0{fill:none;stroke:#21C6CA;stroke-width:9.978;stroke-miterlimit:10;}
	.st1{fill:#21C6CA;}
</style>
<g>
	<circle class="st0 rolloverstroke" cx="230.5" cy="230.5" r="225.7"/>
	
		<ellipse transform="matrix(0.1602 -0.9871 0.9871 0.1602 -33.9519 421.1772)" class="st0" cx="230.5" cy="230.5" rx="102.1" ry="102.1"/>
	<path class="st0" d="M230.5,270.8c-22.2,0-40.3-18.1-40.3-40.2s18.1-40.2,40.3-40.2s40.2,18.1,40.2,40.2S252.7,270.8,230.5,270.8z"
		/>
	<path class="st1 rolloverfill" d="M225,236.6L225,236.6c-2.1-2.1-2.1-5.4,0-7.4l139-139l7.4,7.4l-139,139C230.4,238.6,227.1,238.6,225,236.6z"/>
	<g>
		<polygon class="st0 rolloverstroke" points="321.5,140.1 317.4,108.7 350,76.2 354.1,107.5 		"/>
		<polygon class="st0 rolloverstroke" points="321.5,140.1 352.9,144.2 385.5,111.6 354.1,107.5 		"/>
	</g>
	<path class="st0 rolloverstroke" d="M362.9,134.2l-10,10l-31.3-4.1l-4.1-31.3l10.1-10.1c-27.2-20-60.7-31.9-97-31.9
		c-90.4,0-163.9,73.5-163.9,163.9s73.5,163.9,163.9,163.9c90.4,0,163.9-73.5,163.9-163.9C394.4,194.5,382.7,161.2,362.9,134.2z"/>
</g>
</svg>
