<?xml version="1.0" encoding="utf-8"?>
<!-- Generator: Adobe Illustrator 22.1.0, SVG Export Plug-In . SVG Version: 6.00 Build 0)  -->
<svg version="1.1" id="Layer_1" xmlns="http://www.w3.org/2000/svg" xmlns:xlink="http://www.w3.org/1999/xlink" x="0px" y="0px"
	 viewBox="0 0 461.1 461.1" style="enable-background:new 0 0 461.1 461.1;" xml:space="preserve">
<style type="text/css">
	.st0{fill:none;stroke:#21C6CA;stroke-width:9.978;stroke-miterlimit:10;}
	.rolloverfill{fill:#21C6CA;}
</style>
<g>
	<g>
		<g>
			<g>
				<circle class="st0 rolloverstroke" cx="230.5" cy="229.5" r="225.6"/>
			</g>
		</g>
	</g>
	<circle class="st0" cx="187.4" cy="183.4" r="109.6"/>
	<circle class="st0" cx="187.4" cy="183.4" r="92.7"/>
	<path class="st0" d="M370.1,366.2L370.1,366.2c-6,6-15.7,6-21.7,0L267.2,285c-6-6-6-15.7,0-21.7l0,0c6-6,15.7-6,21.7,0l81.2,81.2
		C376.1,350.4,376.1,360.2,370.1,366.2z"/>
	<path class="rolloverfill" d="M187.4,236.1c-5.7,0-11.1-2.2-15.2-6.3l-33.1-33.1c-6.2-6.2-9.6-14.4-9.6-23.2c0-8.8,3.4-17,9.6-23.2
		c12.8-12.8,33.6-12.8,46.3,0l2,2l2-2c12.8-12.8,33.6-12.8,46.3,0l0,0c6.2,6.2,9.6,14.4,9.6,23.2c0,8.8-3.4,17-9.6,23.2l-33.1,33.1
		C198.5,233.8,193.1,236.1,187.4,236.1z M162.2,150.4c-5.9,0-11.8,2.2-16.3,6.7c-4.3,4.3-6.7,10.1-6.7,16.3c0,6.2,2.4,12,6.7,16.3
		l33.1,33.1c2.2,2.2,5.2,3.4,8.3,3.4s6.1-1.2,8.3-3.4l33.1-33.1c4.3-4.3,6.7-10.1,6.7-16.3c0-6.2-2.4-12-6.7-16.3
		c-9-9-23.6-9-32.6,0l-5.4,5.4c-1.9,1.9-5,1.9-6.9,0l-5.4-5.4C174,152.7,168.1,150.4,162.2,150.4z"/>
</g>
</svg>
