<?xml version="1.0" encoding="utf-8"?>
<!-- Generator: Adobe Illustrator 22.1.0, SVG Export Plug-In . SVG Version: 6.00 Build 0)  -->
<svg version="1.1" id="Layer_1" xmlns="http://www.w3.org/2000/svg" xmlns:xlink="http://www.w3.org/1999/xlink" x="0px" y="0px"
	 viewBox="0 0 461.1 461.1" style="enable-background:new 0 0 461.1 461.1;" xml:space="preserve">
<style type="text/css">
	.st0{fill:none;stroke:#21C6CA;stroke-width:9.978;stroke-miterlimit:10;}
	.st1{fill:#21C6CA;}
</style>
<g>
	<g>
		<g>
			<path class="st0" d="M425.8,200.1c-2-7.2-10.9-6.5-18.1-8.4c-4-1.1-17.3-6.1-29.8-8.9c-25.8-5.8-74.1-10.8-109.5,4.6
				c0,0-5.6,2.9-10.3,5.1c-3.1,1.4-6.6,2-10,1.6c-4.3-0.5-11-1.2-16.1-1.4l0-0.1c-0.5,0-1,0-1.5,0c-0.5,0-1,0-1.5,0l0,0.1
				c-5.1,0.2-11.7,0.9-16.1,1.4c-3.4,0.4-6.8-0.2-10-1.6c-4.7-2.1-10.3-5.1-10.3-5.1c-35.4-15.4-84.5-10.3-109.5-4.6
				c-12.4,2.8-25.8,7.8-29.8,8.9c-7.2,1.9-16.1,1.3-18.1,8.4c-0.8,3-1.3,12,3.6,16.1s11,6.2,12,11.3c1,5.1,1.8,41.9,14.1,65
				c5.6,10.5,18.5,15.3,43.7,19c15.7,2.3,53.9,4.4,77-1.9c10.7-2.9,17.7-14.1,20.2-21.9c3-9.3,5.5-26.8,6.1-30.5l5-31.8
				c0,0,2-9,13.4-9.8c11.4,0.8,13.4,9.8,13.4,9.8l5,31.8c0.6,3.7,3.1,21.2,6.1,30.5c2.6,7.8,9.5,19,20.2,21.9
				c23.2,6.3,61.3,4.2,77,1.9c25.3-3.7,38.1-8.5,43.7-19c12.3-23.1,13.1-59.9,14.1-65c1-5.1,7.1-7.2,12-11.3S426.6,203,425.8,200.1z
				"/>
			<g>
				<path class="st1" d="M131.5,201.6c10.4,0,21.7,0.8,34.5,2.4c14.2,1.8,19.3,9,22.5,19.3c0.9,2.9,1.3,16.4-1.2,31.8
					c-3.1,19.4-8.3,27.2-10.8,28.8c-4.2,2.5-13.6,5.5-34.7,5.5c-8.5,0-16.5-0.5-21.8-0.8c-1.3-0.1-2.4-0.1-3.4-0.2
					c-12.2-0.7-27.7-5.7-32.5-12.8c-3.9-5.8-7.1-29.2-7.9-47.6c0-12.6,4.3-20.2,26.5-24.1C111.6,202.4,121.3,201.6,131.5,201.6
					 M131.5,191.6c-10.1,0-20.4,0.7-30.5,2.5c-23.1,4-34.8,13.1-34.8,34.1c0,0,1.7,41.1,9.6,52.9c7.9,11.8,28.4,16.6,40.2,17.2
					c5.1,0.3,14.9,1,25.7,1c14.4,0,30.5-1.3,39.8-7c16.4-9.8,19.7-61.6,16.4-72.1c-3.3-10.5-9.8-23.6-30.8-26.2
					C155.8,192.6,143.7,191.6,131.5,191.6L131.5,191.6z"/>
			</g>
			<g>
				<path class="st1" d="M330.1,201.6c10.3,0,19.9,0.8,28.8,2.3c22.1,3.8,26.4,11.4,26.5,24.1c-0.8,18.4-4,41.8-7.9,47.6
					c-4.8,7.2-20.3,12.1-32.5,12.8c-1,0.1-2.1,0.1-3.4,0.2c-5.3,0.3-13.3,0.8-21.8,0.8c-21.1,0-30.5-3-34.7-5.5
					c-2.6-1.5-7.8-9.3-10.8-28.8c-2.5-15.4-2.1-28.9-1.2-31.8c3.2-10.3,8.3-17.5,22.5-19.3C308.4,202.4,319.7,201.6,330.1,201.6
					L330.1,201.6 M330.1,191.6c-12.2,0-24.3,1-35.8,2.5c-21,2.6-27.5,15.7-30.8,26.2c-3.3,10.5,0,62.3,16.4,72.1
					c9.3,5.6,25.5,7,39.8,7c10.8,0,20.6-0.8,25.7-1c11.8-0.7,32.4-5.4,40.2-17.2c7.9-11.8,9.6-52.9,9.6-52.9
					c0-21-11.7-30.1-34.8-34.1C350.4,192.3,340.2,191.6,330.1,191.6L330.1,191.6z"/>
			</g>
			<ellipse class="st1" cx="49.9" cy="207.2" rx="6.6" ry="3.9"/>
			<ellipse class="st1" cx="408.6" cy="207.2" rx="6.6" ry="3.9"/>
		</g>
	</g>
	<g>
		<g>
			<g>
				<circle class="st0 rolloverstroke" cx="230.5" cy="229.5" r="225.6"/>
			</g>
		</g>
	</g>
</g>
</svg>
